<svg width="47" height="50" viewBox="0 0 47 50" fill="none" xmlns="http://www.w3.org/2000/svg">
    <defs>
        <linearGradient id="paint0_symbol_dark_linear_127_126" x1="39.7696" y1="29.4276" x2="19.0377" y2="0.114155" gradientUnits="userSpaceOnUse">
            <stop stop-color="#0E2A4D"/>
            <stop offset="0.201923" stop-color="#1B3961"/>
            <stop offset="0.475962" stop-color="#3B5A86"/>
        </linearGradient>
        <linearGradient id="paint1_symbol_dark_linear_127_126" x1="38.0054" y1="24.6882" x2="8.32534" y2="5.7874" gradientUnits="userSpaceOnUse">
            <stop stop-color="#987328"/>
            <stop offset="0.509615" stop-color="#ECAF44"/>
            <stop offset="0.918269" stop-color="#A97B21"/>
        </linearGradient>
        <linearGradient id="paint2_symbol_dark_linear_127_126" x1="19.6511" y1="9.2627" x2="5.20163" y2="42.0032" gradientUnits="userSpaceOnUse">
            <stop stop-color="#0E2A4D"/>
            <stop offset="0.201923" stop-color="#1B3961"/>
            <stop offset="0.475962" stop-color="#3B5A86"/>
        </linearGradient>
        <linearGradient id="paint3_symbol_dark_linear_127_126" x1="16.3499" y1="13.132" x2="15.1611" y2="47.8261" gradientUnits="userSpaceOnUse">
            <stop stop-color="#987328"/>
            <stop offset="0.509615" stop-color="#ECAF44"/>
            <stop offset="0.918269" stop-color="#A97B21"/>
        </linearGradient>
        <linearGradient id="paint4_symbol_dark_linear_127_126" x1="11.7154" y1="36.5657" x2="47.8733" y2="32.8337" gradientUnits="userSpaceOnUse">
            <stop stop-color="#0E2A4D"/>
            <stop offset="0.201923" stop-color="#1B3961"/>
            <stop offset="0.475962" stop-color="#3B5A86"/>
        </linearGradient>
        <linearGradient id="paint5_symbol_dark_linear_127_126" x1="16.7803" y1="37.4362" x2="47.7534" y2="20.6525" gradientUnits="userSpaceOnUse">
            <stop stop-color="#987328"/>
            <stop offset="0.509615" stop-color="#ECAF44"/>
            <stop offset="0.918269" stop-color="#A97B21"/>
        </linearGradient>
    </defs>
    <path fill-rule="evenodd" clip-rule="evenodd" d="M20.985 8.00402C23.1951 8.84328 25.9943 13.502 25.9943 13.502C29.8999 20.179 33.8749 26.9697 35.1895 29.1152C36.268 30.9674 34.9016 32.6659 33.2876 32.676C39.8104 32.2003 40.9087 31.9131 42.7196 26.5389C43.5567 23.2087 45.094 19.9537 45.3816 15.6743C45.0768 12.2451 43.8194 10.1391 42.1684 8.77282C37.7092 6.11065 30.7314 1.93977 29.0868 1.16472C27.2797 0.312961 26.1458 0.121067 24.063 0C22.0387 0.151353 22.6226 0.05954 20.2286 0.851362C11.0324 5.39784 11.2846 5.77082 5.27494 9.28867C2.8501 10.7081 0.34855 13.3488 0.216797 17.6256C0.809969 14.0736 3.40158 12.3138 4.82116 11.2952C6.89883 10.0582 12.1874 8.97526 13.5122 8.68707C14.8373 8.39886 18.775 7.16477 20.985 8.00402Z" fill="url(#paint0_symbol_dark_linear_127_126)"/>
    <path d="M25.9915 13.5013C25.9915 13.5013 23.1923 8.84252 20.9823 8.00326C18.772 7.16401 14.8345 8.3981 13.5094 8.68631C12.3434 8.93992 8.10805 9.80896 5.69254 10.8569C5.33506 11.0279 5.03955 11.1769 4.81836 11.2945C5.06766 11.146 5.36317 10.9998 5.69254 10.8569C7.36333 10.0575 10.3877 8.77537 13.5051 7.95578C18.4498 6.72638 21.0379 5.57952 23.0462 7.2571C24.846 8.76056 26.9869 13.7297 29.9322 19.1809C33.0377 25.5403 35.1867 29.1143 35.1867 29.1143C33.8721 26.9691 29.8969 20.178 25.9915 13.5013Z" fill="url(#paint1_symbol_dark_linear_127_126)"/>
    <path fill-rule="evenodd" clip-rule="evenodd" d="M10.1351 35.9372C9.77081 33.6396 12.4831 28.9315 12.4831 28.9315C16.4233 22.2743 20.4293 15.5009 21.6653 13.311C22.7609 11.4684 24.9431 11.7805 25.7589 13.1468C22.0779 7.84172 21.2754 7.05197 15.6264 8.20044C12.2687 9.15398 8.62746 9.47523 4.70667 11.3705C1.83244 13.3441 0.602348 15.4655 0.222022 17.5516C0.10207 22.672 -0.0901996 30.687 0.0479804 32.4721C0.199851 34.4337 0.597515 35.4933 1.53207 37.3238C2.67775 38.9682 2.30482 38.518 4.20051 40.1561C12.8115 45.698 13.0143 45.2969 19.1242 48.6451C21.5892 49.9959 25.1707 50.8012 29.0112 48.7746C25.5796 50.0468 22.7306 48.7243 21.122 48.0274C18.9914 46.8803 15.3912 42.9277 14.4744 41.946C13.5576 40.964 10.4997 38.235 10.1351 35.9372Z" fill="url(#paint2_symbol_dark_linear_127_126)"/>
    <path d="M12.4834 28.9348C12.4834 28.9348 9.77114 33.6425 10.1354 35.9404C10.5 38.2383 13.5579 40.9672 14.4747 41.949C15.2816 42.813 18.1662 45.9776 20.299 47.5063C20.6287 47.7246 20.9079 47.9013 21.1223 48.0304C20.8666 47.8929 20.5898 47.7148 20.299 47.5063C18.7581 46.4864 16.1141 44.5571 13.8323 42.3181C10.2748 38.7308 7.96862 37.105 8.44497 34.5596C8.87191 32.2782 12.1872 27.9748 15.5257 22.746C19.5858 16.9274 21.6656 13.3142 21.6656 13.3142C20.4297 15.5041 16.4236 22.2775 12.4834 28.9348Z" fill="url(#paint3_symbol_dark_linear_127_126)"/>
    <path fill-rule="evenodd" clip-rule="evenodd" d="M40.0157 31.315C38.17 32.7734 32.6587 32.8224 32.6587 32.8224C24.8132 32.8031 16.8319 32.7853 14.2811 32.8301C12.1073 32.8203 11.2915 30.8099 12.0894 29.4334C9.24781 35.2141 8.95211 36.2909 12.7902 40.517C15.3105 42.8936 17.4149 45.8271 21.0478 48.2113C24.227 49.6668 26.7143 49.6515 28.7456 48.9315C33.3249 46.4734 40.4948 42.6291 42.0011 41.6193C43.6564 40.5096 44.3928 39.6418 45.541 37.9324C46.4198 36.1364 46.2089 36.6786 46.7068 34.2485C47.2923 24.1604 46.837 24.1882 46.7371 17.3225C46.6968 14.5522 45.6169 11.1061 41.9082 8.85571C44.7466 11.1358 45.0037 14.218 45.193 15.9336C45.2459 18.3176 43.5576 23.353 43.1493 24.6231C42.7413 25.8931 41.8617 29.8563 40.0157 31.315Z" fill="url(#paint4_symbol_dark_linear_127_126)"/>
    <path d="M32.6608 32.8203C32.6608 32.8203 38.1721 32.7711 40.0178 31.3126C41.8636 29.8542 42.7434 25.891 43.1514 24.621C43.5106 23.5033 44.8613 19.4696 45.144 16.893C45.1719 16.5037 45.1883 16.1781 45.1951 15.9314C45.2016 16.2175 45.1827 16.5417 45.144 16.893C45.0141 18.7126 44.6337 21.9238 43.7984 24.9827C42.411 29.7991 42.1293 32.5718 39.6444 33.4396C37.4176 34.2176 31.9614 33.5519 25.6776 33.3294C18.5123 32.7885 14.2832 32.8278 14.2832 32.8278C16.834 32.7833 24.8151 32.8007 32.6608 32.8203Z" fill="url(#paint5_symbol_dark_linear_127_126)"/>

</svg>
