<svg width="253" height="50" viewBox="0 0 253 50" fill="none" xmlns="http://www.w3.org/2000/svg">
    <path fill-rule="evenodd" clip-rule="evenodd" d="M20.985 8.00402C23.1951 8.84328 25.9943 13.502 25.9943 13.502C29.8999 20.179 33.8749 26.9697 35.1895 29.1152C36.268 30.9674 34.9016 32.6659 33.2876 32.676C39.8104 32.2003 40.9087 31.9131 42.7196 26.5389C43.5567 23.2087 45.094 19.9537 45.3816 15.6743C45.0768 12.2451 43.8194 10.1391 42.1684 8.77282C37.7092 6.11065 30.7314 1.93977 29.0868 1.16472C27.2797 0.312961 26.1458 0.121067 24.063 0C22.0387 0.151353 22.6226 0.05954 20.2286 0.851362C11.0324 5.39784 11.2846 5.77082 5.27494 9.28867C2.8501 10.7081 0.34855 13.3488 0.216797 17.6256C0.809969 14.0736 3.40158 12.3138 4.82116 11.2952C6.89883 10.0582 12.1874 8.97526 13.5122 8.68707C14.8373 8.39886 18.775 7.16477 20.985 8.00402Z" fill="url(#paint0_one_line_light_linear_127_114)"/>
    <path d="M25.9915 13.5013C25.9915 13.5013 23.1923 8.84252 20.9823 8.00326C18.772 7.16401 14.8345 8.3981 13.5094 8.68631C12.3434 8.93992 8.10805 9.80896 5.69254 10.8569C5.33506 11.0279 5.03955 11.1769 4.81836 11.2945C5.06766 11.146 5.36317 10.9998 5.69254 10.8569C7.36333 10.0575 10.3877 8.77537 13.5051 7.95578C18.4498 6.72638 21.0379 5.57952 23.0462 7.2571C24.846 8.76056 26.9869 13.7297 29.9322 19.1809C33.0377 25.5403 35.1867 29.1143 35.1867 29.1143C33.8721 26.9691 29.8969 20.178 25.9915 13.5013Z" fill="url(#paint1_one_line_light_linear_127_114)"/>
    <path fill-rule="evenodd" clip-rule="evenodd" d="M10.1351 35.9372C9.77081 33.6396 12.4831 28.9315 12.4831 28.9315C16.4233 22.2743 20.4293 15.5009 21.6653 13.311C22.7609 11.4684 24.9431 11.7805 25.7589 13.1468C22.0779 7.84172 21.2754 7.05197 15.6264 8.20044C12.2687 9.15398 8.62746 9.47523 4.70667 11.3705C1.83244 13.3441 0.602348 15.4655 0.222022 17.5516C0.10207 22.672 -0.0901996 30.687 0.0479804 32.4721C0.199851 34.4337 0.597515 35.4933 1.53207 37.3238C2.67775 38.9682 2.30482 38.518 4.20051 40.1561C12.8115 45.698 13.0143 45.2969 19.1242 48.6451C21.5892 49.9959 25.1707 50.8012 29.0112 48.7746C25.5796 50.0468 22.7306 48.7243 21.122 48.0274C18.9914 46.8803 15.3912 42.9277 14.4744 41.946C13.5576 40.964 10.4997 38.235 10.1351 35.9372Z" fill="url(#paint2_one_line_light_linear_127_114)"/>
    <path d="M12.4834 28.9348C12.4834 28.9348 9.77114 33.6425 10.1354 35.9404C10.5 38.2383 13.5579 40.9672 14.4747 41.949C15.2816 42.813 18.1662 45.9776 20.299 47.5063C20.6287 47.7246 20.9079 47.9013 21.1223 48.0304C20.8666 47.8929 20.5898 47.7148 20.299 47.5063C18.7581 46.4864 16.1141 44.5571 13.8323 42.3181C10.2748 38.7308 7.96862 37.105 8.44497 34.5596C8.87191 32.2782 12.1872 27.9748 15.5257 22.746C19.5858 16.9274 21.6656 13.3142 21.6656 13.3142C20.4297 15.5041 16.4236 22.2775 12.4834 28.9348Z" fill="url(#paint3_one_line_light_linear_127_114)"/>
    <path fill-rule="evenodd" clip-rule="evenodd" d="M40.0157 31.315C38.17 32.7734 32.6587 32.8224 32.6587 32.8224C24.8132 32.8031 16.8319 32.7853 14.2811 32.8301C12.1073 32.8203 11.2915 30.8099 12.0894 29.4334C9.24781 35.2141 8.95211 36.2909 12.7902 40.517C15.3105 42.8936 17.4149 45.8271 21.0478 48.2113C24.227 49.6668 26.7143 49.6515 28.7456 48.9315C33.3249 46.4734 40.4948 42.6291 42.0011 41.6193C43.6564 40.5096 44.3928 39.6418 45.541 37.9324C46.4198 36.1364 46.2089 36.6786 46.7068 34.2485C47.2923 24.1604 46.837 24.1882 46.7371 17.3225C46.6968 14.5522 45.6169 11.1061 41.9082 8.85571C44.7466 11.1358 45.0037 14.218 45.193 15.9336C45.2459 18.3176 43.5576 23.353 43.1493 24.6231C42.7413 25.8931 41.8617 29.8563 40.0157 31.315Z" fill="url(#paint4_one_line_light_linear_127_114)"/>
    <path d="M32.6608 32.8203C32.6608 32.8203 38.1721 32.7711 40.0178 31.3126C41.8636 29.8542 42.7434 25.891 43.1514 24.621C43.5106 23.5033 44.8613 19.4696 45.144 16.893C45.1719 16.5037 45.1883 16.1781 45.1951 15.9314C45.2016 16.2175 45.1827 16.5417 45.144 16.893C45.0141 18.7126 44.6337 21.9238 43.7984 24.9827C42.411 29.7991 42.1293 32.5718 39.6444 33.4396C37.4176 34.2176 31.9614 33.5519 25.6776 33.3294C18.5123 32.7885 14.2832 32.8278 14.2832 32.8278C16.834 32.7833 24.8151 32.8007 32.6608 32.8203Z" fill="url(#paint5_one_line_light_linear_127_114)"/>
    <path d="M71.128 22.376V28.104H64.6V37H56.92V13H72.664L71.704 19.144H64.6V22.376H71.128ZM89.8305 29L93.9905 37H85.5425L82.4065 29.864H80.7425V37H73.0625V13H85.1585C90.6625 13 93.4145 15.8053 93.4145 21.416C93.4145 25.256 92.2198 27.784 89.8305 29ZM82.5025 19.144H80.7425V23.944H82.5025C83.4412 23.944 84.1132 23.848 84.5185 23.656C84.9452 23.464 85.1585 23.0267 85.1585 22.344V20.744C85.1585 20.0613 84.9452 19.624 84.5185 19.432C84.1132 19.24 83.4412 19.144 82.5025 19.144ZM101.359 33.192L100.496 37H92.3995L98.6075 13H110.479L116.688 37H108.592L107.696 33.192H101.359ZM104.752 20.36H104.336L102.767 27.08H106.288L104.752 20.36ZM124.094 26.568H123.934V37H116.254V13H123.934V22.792H124.094C124.115 22.408 124.158 22.0667 124.222 21.768C124.286 21.448 124.371 21.1707 124.478 20.936L128.222 13H136.542L130.782 24.776L136.734 37H128.414L124.478 28.392C124.371 28.1573 124.286 27.8907 124.222 27.592C124.158 27.2933 124.115 26.952 124.094 26.568ZM154.203 13V19.144H148.635V37H140.955V19.144H135.387V13H154.203ZM153.231 25.032C153.231 22.8347 153.412 20.9467 153.775 19.368C154.159 17.768 154.788 16.456 155.663 15.432C156.559 14.408 157.732 13.6507 159.183 13.16C160.633 12.6693 162.425 12.424 164.559 12.424C166.713 12.424 168.505 12.6693 169.935 13.16C171.385 13.6507 172.548 14.408 173.423 15.432C174.319 16.456 174.948 17.768 175.311 19.368C175.695 20.9467 175.887 22.8347 175.887 25.032C175.887 27.1227 175.716 28.9573 175.375 30.536C175.033 32.0933 174.425 33.3947 173.551 34.44C172.697 35.4853 171.535 36.2747 170.063 36.808C168.612 37.32 166.777 37.576 164.559 37.576C162.34 37.576 160.495 37.32 159.023 36.808C157.572 36.2747 156.409 35.4853 155.535 34.44C154.681 33.3947 154.084 32.0933 153.743 30.536C153.401 28.9573 153.231 27.1227 153.231 25.032ZM161.487 21.032V31.016H164.687C165.753 31.016 166.511 30.8987 166.959 30.664C167.428 30.408 167.663 29.8427 167.663 28.968V18.984H164.431C163.407 18.984 162.66 19.112 162.191 19.368C161.721 19.6027 161.487 20.1573 161.487 21.032ZM197.962 37H190.73L184.874 28.488C184.767 28.3387 184.682 28.1147 184.618 27.816C184.554 27.5173 184.511 27.1227 184.49 26.632H184.33V37H176.65V13H183.882L189.738 21.512C189.845 21.6613 189.93 21.8853 189.994 22.184C190.058 22.4827 190.101 22.8773 190.122 23.368H190.282V13H197.962V37Z" fill="#2A4263"/>
    <path d="M227.232 37H220L214.144 28.488C214.037 28.3387 213.952 28.1147 213.888 27.816C213.824 27.5173 213.781 27.1227 213.76 26.632H213.6V37H205.92V13H213.152L219.008 21.512C219.115 21.6613 219.2 21.8853 219.264 22.184C219.328 22.4827 219.371 22.8773 219.392 23.368H219.552V13H227.232V37ZM241.764 29.928V28.904H239.812V23.016H249.06V35.848C246.031 37 242.884 37.576 239.62 37.576C237.38 37.576 235.524 37.3093 234.052 36.776C232.602 36.2427 231.45 35.4533 230.596 34.408C229.743 33.3413 229.146 32.0293 228.804 30.472C228.484 28.8933 228.324 27.0587 228.324 24.968C228.324 22.7493 228.527 20.8507 228.932 19.272C229.338 17.672 230.01 16.3707 230.948 15.368C231.887 14.344 233.135 13.5973 234.692 13.128C236.25 12.6587 238.18 12.424 240.484 12.424C240.996 12.424 241.594 12.456 242.276 12.52C242.98 12.5627 243.684 12.6373 244.388 12.744C245.092 12.8293 245.754 12.936 246.372 13.064C247.012 13.1707 247.524 13.288 247.908 13.416L246.756 19.304C245.711 19.1333 244.719 19.0053 243.78 18.92C242.842 18.8133 241.967 18.76 241.156 18.76C239.471 18.76 238.287 18.888 237.604 19.144C236.922 19.4 236.58 19.912 236.58 20.68V31.56H239.108C240.047 31.56 240.719 31.464 241.124 31.272C241.551 31.0587 241.764 30.6107 241.764 29.928Z" fill="#F0B100FF"/>
    <defs>
        <linearGradient id="paint0_one_line_light_linear_127_114" x1="39.7696" y1="29.4276" x2="19.0377" y2="0.114155" gradientUnits="userSpaceOnUse">
            <stop stop-color="#0C2340"/>
            <stop offset="0.201923" stop-color="#152E4E"/>
            <stop offset="0.475962" stop-color="#253F62"/>
        </linearGradient>
        <linearGradient id="paint1_one_line_light_linear_127_114" x1="38.0054" y1="24.6882" x2="8.32534" y2="5.7874" gradientUnits="userSpaceOnUse">
            <stop stop-color="#987328"/>
            <stop offset="0.509615" stop-color="#ECAF44"/>
            <stop offset="0.918269" stop-color="#A97B21"/>
        </linearGradient>
        <linearGradient id="paint2_one_line_light_linear_127_114" x1="19.6511" y1="9.2627" x2="5.20163" y2="42.0032" gradientUnits="userSpaceOnUse">
            <stop stop-color="#0C2340"/>
            <stop offset="0.201923" stop-color="#152E4E"/>
            <stop offset="0.475962" stop-color="#253F62"/>
        </linearGradient>
        <linearGradient id="paint3_one_line_light_linear_127_114" x1="16.3499" y1="13.132" x2="15.1611" y2="47.8261" gradientUnits="userSpaceOnUse">
            <stop stop-color="#987328"/>
            <stop offset="0.509615" stop-color="#ECAF44"/>
            <stop offset="0.918269" stop-color="#A97B21"/>
        </linearGradient>
        <linearGradient id="paint4_one_line_light_linear_127_114" x1="11.7154" y1="36.5657" x2="47.8733" y2="32.8337" gradientUnits="userSpaceOnUse">
            <stop stop-color="#0C2340"/>
            <stop offset="0.201923" stop-color="#152E4E"/>
            <stop offset="0.475962" stop-color="#253F62"/>
        </linearGradient>
        <linearGradient id="paint5_one_line_light_linear_127_114" x1="16.7803" y1="37.4362" x2="47.7534" y2="20.6525" gradientUnits="userSpaceOnUse">
            <stop stop-color="#987328"/>
            <stop offset="0.509615" stop-color="#ECAF44"/>
            <stop offset="0.918269" stop-color="#A97B21"/>
        </linearGradient>
    </defs>
</svg>
