<svg viewBox="0 0 24 24" fill="currentColor" aria-hidden="true" data-slot="icon" xmlns="http://www.w3.org/2000/svg">
    <path fill-rule="evenodd" d="M3.451 3.065 C 3.067 3.255,2.906 3.655,3.061 4.031 C 3.104 4.134,3.750 4.808,5.149 6.208 L 7.175 8.235 5.738 8.248 C 4.488 8.258,4.284 8.269,4.180 8.326 C 3.598 8.649,3.620 9.407,4.220 9.684 C 4.370 9.754,4.527 9.758,6.720 9.759 C 8.306 9.759,9.111 9.745,9.219 9.715 C 9.423 9.659,9.659 9.423,9.715 9.219 C 9.745 9.111,9.759 8.306,9.759 6.720 C 9.758 4.543,9.753 4.369,9.685 4.220 C 9.591 4.013,9.360 3.811,9.178 3.777 C 8.812 3.708,8.500 3.857,8.339 4.178 L 8.240 4.376 8.240 5.778 L 8.240 7.180 6.210 5.151 C 4.809 3.751,4.134 3.104,4.031 3.061 C 3.841 2.983,3.615 2.984,3.451 3.065 M14.900 14.259 C 14.878 14.267,14.812 14.284,14.753 14.296 C 14.598 14.331,14.400 14.512,14.315 14.698 C 14.247 14.849,14.242 15.016,14.242 17.240 C 14.242 19.472,14.246 19.630,14.316 19.780 C 14.602 20.399,15.398 20.399,15.684 19.780 C 15.752 19.634,15.758 19.497,15.759 18.220 L 15.760 16.820 17.790 18.849 C 19.191 20.249,19.866 20.896,19.969 20.939 C 20.266 21.062,20.559 20.996,20.788 20.755 C 21.006 20.524,21.057 20.256,20.939 19.969 C 20.896 19.866,20.249 19.191,18.849 17.790 L 16.820 15.760 18.220 15.759 C 19.497 15.758,19.634 15.752,19.780 15.684 C 20.266 15.459,20.399 14.877,20.047 14.506 C 19.803 14.248,19.935 14.261,17.320 14.252 C 16.011 14.248,14.922 14.251,14.900 14.259 " clip-rule="evenodd"></path>
</svg>