<svg width="350" height="150" viewBox="0 0 350 150" fill="none" xmlns="http://www.w3.org/2000/svg">
<path fill-rule="evenodd" clip-rule="evenodd" d="M43.3099 38.9685C47.871 40.7477 53.6482 50.6243 53.6482 50.6243C61.7087 64.7794 69.9125 79.1758 72.6255 83.7243C74.8514 87.6509 72.0314 91.2517 68.7003 91.273C82.1623 90.2647 84.429 89.6557 88.1663 78.2624C89.894 71.2024 93.0669 64.3019 93.6604 55.2296C93.0312 47.9595 90.4363 43.4949 87.0289 40.5984C77.8258 34.9546 63.4247 26.1123 60.0306 24.4692C56.301 22.6635 53.9609 22.2567 49.6622 22C45.4846 22.3209 46.6895 22.1262 41.7489 23.8049C22.7693 33.4434 23.2899 34.2341 10.8869 41.692C5.88245 44.7011 0.71967 50.2994 0.447754 59.3663C1.67196 51.836 7.02061 48.1053 9.95039 45.9458C14.2383 43.3233 25.153 41.0275 27.8872 40.4166C30.622 39.8056 38.7488 37.1893 43.3099 38.9685Z" fill="url(#paint0_linear_41_35)"/>
<path d="M53.6417 50.6224C53.6417 50.6224 47.8645 40.7459 43.3034 38.9667C38.7418 37.1875 30.6155 39.8037 27.8807 40.4147C25.4742 40.9524 16.7332 42.7947 11.748 45.0164C11.0102 45.379 10.4003 45.6948 9.94385 45.944C10.4584 45.6293 11.0682 45.3193 11.748 45.0164C15.1962 43.3217 21.4381 40.6035 27.8718 38.866C38.0769 36.2597 43.4182 33.8283 47.563 37.3848C51.2776 40.5721 55.696 51.1067 61.7747 62.6633C68.1839 76.1452 72.619 83.7221 72.619 83.7221C69.906 79.1742 61.7017 64.7772 53.6417 50.6224Z" fill="url(#paint1_linear_41_35)"/>
<path fill-rule="evenodd" clip-rule="evenodd" d="M20.9171 98.187C20.1653 93.3161 25.763 83.335 25.763 83.335C33.8949 69.2217 42.1627 54.8621 44.7136 50.2195C46.9746 46.3131 51.4783 46.9748 53.162 49.8715C45.5652 38.6247 43.9088 36.9504 32.2502 39.3851C25.3205 41.4066 17.8056 42.0877 9.71379 46.1057C3.78185 50.2897 1.24315 54.787 0.458216 59.2096C0.210655 70.0649 -0.186157 87.0566 0.0990235 90.8411C0.41246 94.9997 1.23317 97.2461 3.16194 101.127C5.52643 104.613 4.75677 103.658 8.66915 107.131C26.4407 118.88 26.8593 118.03 39.4692 125.128C44.5564 127.992 51.9481 129.699 59.8743 125.402C52.7919 128.099 46.9122 125.296 43.5922 123.818C39.195 121.387 31.7648 113.007 29.8727 110.926C27.9806 108.844 21.6695 103.058 20.9171 98.187Z" fill="url(#paint2_linear_41_35)"/>
<path d="M25.7648 83.3418C25.7648 83.3418 20.167 93.3223 20.9189 98.1937C21.6712 103.065 27.9823 108.851 29.8744 110.932C31.5397 112.764 37.493 119.473 41.8947 122.713C42.5752 123.176 43.1515 123.551 43.594 123.824C43.0662 123.533 42.4949 123.155 41.8947 122.713C38.7146 120.551 33.2579 116.461 28.5486 111.714C21.2064 104.109 16.4469 100.663 17.43 95.2665C18.3112 90.4299 25.1534 81.3065 32.0435 70.2216C40.4228 57.8862 44.7153 50.2262 44.7153 50.2262C42.1644 54.8687 33.8966 69.2285 25.7648 83.3418Z" fill="url(#paint3_linear_41_35)"/>
<path fill-rule="evenodd" clip-rule="evenodd" d="M82.5856 88.3879C78.7763 91.4797 67.4019 91.5837 67.4019 91.5837C51.2101 91.5427 34.738 91.505 29.4736 91.6C24.9871 91.5792 23.3035 87.3172 24.9504 84.3989C19.0857 96.654 18.4754 98.9369 26.3966 107.896C31.5981 112.934 35.9413 119.154 43.4389 124.208C50.0002 127.294 55.1337 127.261 59.3258 125.735C68.7768 120.524 83.5742 112.374 86.683 110.233C90.0993 107.88 91.6191 106.041 93.9889 102.417C95.8024 98.6094 95.3671 99.7587 96.3948 94.607C97.6031 73.2202 96.6634 73.2792 96.4572 58.7238C96.3742 52.8508 94.1455 45.5451 86.4913 40.7743C92.3492 45.608 92.8798 52.1422 93.2705 55.7794C93.3797 60.8336 89.8954 71.5086 89.0527 74.201C88.2106 76.8935 86.3954 85.2955 82.5856 88.3879Z" fill="url(#paint4_linear_41_35)"/>
<path d="M67.4069 91.5792C67.4069 91.5792 78.7812 91.4747 82.5905 88.3828C86.3998 85.291 88.2155 76.889 89.0577 74.1965C89.7989 71.8271 92.5866 63.2756 93.1701 57.8133C93.2275 56.988 93.2615 56.2977 93.2754 55.7746C93.2888 56.3811 93.2498 57.0685 93.1701 57.8133C92.902 61.6707 92.1168 68.4785 90.393 74.9633C87.5295 85.1742 86.9482 91.0522 81.8197 92.892C77.2241 94.5412 65.9634 93.1301 52.9946 92.6583C38.2067 91.5118 29.4785 91.5949 29.4785 91.5949C34.743 91.5005 51.2145 91.5376 67.4069 91.5792Z" fill="url(#paint5_linear_41_35)"/>
<path d="M139.192 43.6549V52.2469H129.4V65.5909H117.88V29.5909H141.496L140.056 38.8069H129.4V43.6549H139.192ZM170.126 53.5909L176.366 65.5909H163.694L158.99 54.8869H156.494V65.5909H144.974V29.5909H163.118C171.374 29.5909 175.502 33.7989 175.502 42.2149C175.502 47.9749 173.71 51.7669 170.126 53.5909ZM159.134 38.8069H156.494V46.0069H159.134C160.542 46.0069 161.55 45.8629 162.158 45.5749C162.798 45.2869 163.118 44.6309 163.118 43.6069V41.2069C163.118 40.1829 162.798 39.5269 162.158 39.2389C161.55 38.9509 160.542 38.8069 159.134 38.8069ZM190.299 59.8789L189.003 65.5909H176.859L186.171 29.5909H203.979L213.291 65.5909H201.147L199.803 59.8789H190.299ZM195.387 40.6309H194.763L192.411 50.7109H197.691L195.387 40.6309ZM227.281 49.9429H227.041V65.5909H215.521V29.5909H227.041V44.2789H227.281C227.313 43.7029 227.377 43.1909 227.473 42.7429C227.569 42.2629 227.697 41.8469 227.857 41.4949L233.473 29.5909H245.953L237.313 47.2549L246.241 65.5909H233.761L227.857 52.6789C227.697 52.3269 227.569 51.9269 227.473 51.4789C227.377 51.0309 227.313 50.5189 227.281 49.9429ZM275.325 29.5909V38.8069H266.973V65.5909H255.453V38.8069H247.101V29.5909H275.325ZM276.746 47.6389C276.746 44.3429 277.018 41.5109 277.562 39.1429C278.138 36.7429 279.082 34.7749 280.394 33.2389C281.738 31.7029 283.498 30.5669 285.674 29.8309C287.85 29.0949 290.538 28.7269 293.738 28.7269C296.97 28.7269 299.658 29.0949 301.802 29.8309C303.978 30.5669 305.722 31.7029 307.034 33.2389C308.378 34.7749 309.322 36.7429 309.866 39.1429C310.442 41.5109 310.73 44.3429 310.73 47.6389C310.73 50.7749 310.474 53.5269 309.962 55.8949C309.45 58.2309 308.538 60.1829 307.226 61.7509C305.946 63.3189 304.202 64.5029 301.994 65.3029C299.818 66.0709 297.066 66.4549 293.738 66.4549C290.41 66.4549 287.642 66.0709 285.434 65.3029C283.258 64.5029 281.514 63.3189 280.202 61.7509C278.922 60.1829 278.026 58.2309 277.514 55.8949C277.002 53.5269 276.746 50.7749 276.746 47.6389ZM289.13 41.6389V56.6149H293.93C295.53 56.6149 296.666 56.4389 297.338 56.0869C298.042 55.7029 298.394 54.8549 298.394 53.5429V38.5669H293.546C292.01 38.5669 290.89 38.7589 290.186 39.1429C289.482 39.4949 289.13 40.3269 289.13 41.6389ZM346.723 65.5909H335.875L327.091 52.8229C326.931 52.5989 326.803 52.2629 326.707 51.8149C326.611 51.3669 326.547 50.7749 326.515 50.0389H326.275V65.5909H314.755V29.5909H325.603L334.387 42.3589C334.547 42.5829 334.675 42.9189 334.771 43.3669C334.867 43.8149 334.931 44.4069 334.963 45.1429H335.203V29.5909H346.723V65.5909Z" fill="#DDA33C"/>
<path d="M149.848 108.591H139L130.216 95.8229C130.056 95.5989 129.928 95.2629 129.832 94.8149C129.736 94.3669 129.672 93.7749 129.64 93.0389H129.4V108.591H117.88V72.5909H128.728L137.512 85.3589C137.672 85.5829 137.8 85.9189 137.896 86.3669C137.992 86.8149 138.056 87.4069 138.088 88.1429H138.328V72.5909H149.848V108.591ZM174.046 97.9829V96.4469H171.118V87.6149H184.99V106.863C180.446 108.591 175.726 109.455 170.83 109.455C167.47 109.455 164.686 109.055 162.478 108.255C160.302 107.455 158.574 106.271 157.294 104.703C156.014 103.103 155.118 101.135 154.606 98.7989C154.126 96.4309 153.886 93.6789 153.886 90.5429C153.886 87.2149 154.19 84.3669 154.798 81.9989C155.406 79.5989 156.414 77.6469 157.822 76.1429C159.23 74.6069 161.102 73.4869 163.438 72.7829C165.774 72.0789 168.67 71.7269 172.126 71.7269C172.894 71.7269 173.79 71.7749 174.814 71.8709C175.87 71.9349 176.926 72.0469 177.982 72.2069C179.038 72.3349 180.03 72.4949 180.958 72.6869C181.918 72.8469 182.686 73.0229 183.262 73.2149L181.534 82.0469C179.966 81.7909 178.478 81.5989 177.07 81.4709C175.662 81.3109 174.35 81.2309 173.134 81.2309C170.606 81.2309 168.83 81.4229 167.806 81.8069C166.782 82.1909 166.27 82.9589 166.27 84.1109V100.431H170.062C171.47 100.431 172.478 100.287 173.086 99.9989C173.726 99.6789 174.046 99.0069 174.046 97.9829Z" fill="#BCBCBC"/>
<defs>
<linearGradient id="paint0_linear_41_35" x1="82.0782" y1="84.3866" x2="37.7459" y2="23.3645" gradientUnits="userSpaceOnUse">
<stop stop-color="#0E2A4D"/>
<stop offset="0.201923" stop-color="#1B3961"/>
<stop offset="0.475962" stop-color="#3B5A86"/>
</linearGradient>
<linearGradient id="paint1_linear_41_35" x1="78.4363" y1="74.3387" x2="16.2434" y2="35.7825" gradientUnits="userSpaceOnUse">
<stop stop-color="#987328"/>
<stop offset="0.509615" stop-color="#ECAF44"/>
<stop offset="0.918269" stop-color="#A97B21"/>
</linearGradient>
<linearGradient id="paint2_linear_41_35" x1="40.5565" y1="41.6371" x2="9.37051" y2="110.428" gradientUnits="userSpaceOnUse">
<stop stop-color="#0E2A4D"/>
<stop offset="0.201923" stop-color="#1B3961"/>
<stop offset="0.475962" stop-color="#3B5A86"/>
</linearGradient>
<linearGradient id="paint3_linear_41_35" x1="33.7445" y1="49.8399" x2="31.1558" y2="123.387" gradientUnits="userSpaceOnUse">
<stop stop-color="#987328"/>
<stop offset="0.509615" stop-color="#ECAF44"/>
<stop offset="0.918269" stop-color="#A97B21"/>
</linearGradient>
<linearGradient id="paint4_linear_41_35" x1="24.1785" y1="99.5194" x2="98.8433" y2="92.0172" gradientUnits="userSpaceOnUse">
<stop stop-color="#0E2A4D"/>
<stop offset="0.201923" stop-color="#1B3961"/>
<stop offset="0.475962" stop-color="#3B5A86"/>
</linearGradient>
<linearGradient id="paint5_linear_41_35" x1="34.632" y1="101.365" x2="99.3232" y2="67.2388" gradientUnits="userSpaceOnUse">
<stop stop-color="#987328"/>
<stop offset="0.509615" stop-color="#ECAF44"/>
<stop offset="0.918269" stop-color="#A97B21"/>
</linearGradient>
</defs>
</svg>
