<svg width="179" height="192" viewBox="0 0 179 192" fill="none" xmlns="http://www.w3.org/2000/svg">
<path fill-rule="evenodd" clip-rule="evenodd" d="M79.6032 30.7354C87.9865 33.9582 98.6049 51.8478 98.6049 51.8478C113.42 77.4873 128.499 103.564 133.485 111.802C137.576 118.915 132.393 125.437 126.271 125.476C151.014 123.649 155.18 122.546 162.049 101.909C165.225 89.1214 171.056 76.6224 172.147 60.1894C170.991 47.0211 166.221 38.9342 159.958 33.6876C143.043 23.4649 116.574 7.44872 110.336 4.47253C103.481 1.20177 99.1796 0.464896 91.2788 0C83.6002 0.581196 85.8149 0.228634 76.734 3.26923C41.8497 20.7277 42.8065 22.1599 20.0099 35.6685C10.8117 41.119 1.32253 51.2593 0.822754 67.6824C3.07284 54.0426 12.9036 47.2851 18.2885 43.3736C26.1698 38.6233 46.2309 34.465 51.2564 33.3584C56.2828 32.2516 71.2199 27.5127 79.6032 30.7354Z" fill="url(#paint0_linear_41_16)"/>
<path d="M98.5928 51.8445C98.5928 51.8445 87.9744 33.9549 79.5911 30.7322C71.2068 27.5094 56.2708 32.2483 51.2443 33.3551C46.8211 34.3289 30.7552 37.666 21.5924 41.6901C20.2364 42.3469 19.1154 42.9189 18.2764 43.3703C19.222 42.8003 20.343 42.2389 21.5924 41.6901C27.9303 38.6205 39.4028 33.6971 51.2279 30.5498C69.9848 25.8289 79.8022 21.425 87.4202 27.8669C94.2475 33.6402 102.369 52.7216 113.541 73.6544C125.321 98.0744 133.473 111.798 133.473 111.798C128.486 103.561 113.407 77.4833 98.5928 51.8445Z" fill="url(#paint1_linear_41_16)"/>
<path fill-rule="evenodd" clip-rule="evenodd" d="M38.4456 137.999C37.0638 129.176 47.3523 111.097 47.3523 111.097C62.2986 85.5336 77.4949 59.5238 82.1833 51.1145C86.3391 44.0388 94.6169 45.2373 97.7115 50.4842C83.7485 30.1125 80.7042 27.0799 59.2758 31.49C46.539 35.1516 32.7267 36.3852 17.8539 43.6632C6.95102 51.2417 2.2849 59.3876 0.842199 67.3985C0.387183 87.0609 -0.342156 117.838 0.182005 124.693C0.7581 132.226 2.26656 136.295 5.81164 143.324C10.1575 149.638 8.74292 147.909 15.9339 154.2C48.5979 175.481 49.3672 173.94 72.5442 186.797C81.8945 191.985 95.4804 195.077 110.049 187.295C97.0313 192.18 86.2244 187.102 80.1223 184.426C72.0402 180.021 58.3836 164.843 54.9059 161.073C51.4282 157.302 39.8285 146.823 38.4456 137.999Z" fill="url(#paint2_linear_41_16)"/>
<path d="M47.3557 111.11C47.3557 111.11 37.0672 129.188 38.449 138.011C39.8319 146.835 51.4316 157.314 54.9093 161.084C57.9701 164.402 68.9122 176.554 77.0025 182.424C78.2532 183.263 79.3124 183.941 80.1257 184.437C79.1557 183.909 78.1057 183.225 77.0025 182.424C71.1576 178.508 61.1281 171.099 52.4724 162.502C38.9776 148.727 30.2296 142.483 32.0366 132.709C33.6561 123.948 46.232 107.423 58.8961 87.3448C74.2972 65.0014 82.1867 51.1267 82.1867 51.1267C77.4983 59.5358 62.302 85.5459 47.3557 111.11Z" fill="url(#paint3_linear_41_16)"/>
<path fill-rule="evenodd" clip-rule="evenodd" d="M151.792 120.25C144.791 125.85 123.885 126.038 123.885 126.038C94.1241 125.964 63.8484 125.896 54.1724 126.068C45.9264 126.03 42.8318 118.31 45.8588 113.025C35.0795 135.222 33.9579 139.357 48.517 155.586C58.0772 164.712 66.06 175.976 79.8406 185.132C91.9003 190.721 101.336 190.662 109.041 187.897C126.412 178.458 153.609 163.696 159.323 159.818C165.602 155.557 168.396 152.225 172.751 145.661C176.084 138.764 175.284 140.846 177.173 131.515C179.394 92.7763 177.667 92.8831 177.288 66.5185C177.135 55.8808 173.039 42.6477 158.971 34.0062C169.738 42.7616 170.713 54.5973 171.431 61.1853C171.632 70.3401 165.227 89.6759 163.679 94.5528C162.131 99.4297 158.794 114.648 151.792 120.25Z" fill="url(#paint4_linear_41_16)"/>
<path d="M123.894 126.03C123.894 126.03 144.8 125.841 151.801 120.241C158.803 114.64 162.14 99.4215 163.688 94.5447C165.05 90.2528 170.174 74.7634 171.247 64.8693C171.352 63.3744 171.414 62.1241 171.44 61.1766C171.465 62.2751 171.393 63.5202 171.247 64.8693C170.754 71.8564 169.31 84.1875 166.142 95.9335C160.879 114.429 159.811 125.076 150.385 128.408C141.938 131.395 121.241 128.84 97.4041 127.985C70.224 125.908 54.1816 126.059 54.1816 126.059C63.8577 125.888 94.1323 125.955 123.894 126.03Z" fill="url(#paint5_linear_41_16)"/>
<defs>
<linearGradient id="paint0_linear_41_16" x1="150.859" y1="113.002" x2="70.9288" y2="1.36024" gradientUnits="userSpaceOnUse">
<stop stop-color="#0E2A4D"/>
<stop offset="0.201923" stop-color="#1B3961"/>
<stop offset="0.475962" stop-color="#3B5A86"/>
</linearGradient>
<linearGradient id="paint1_linear_41_16" x1="144.165" y1="94.8022" x2="30.7889" y2="23.48" gradientUnits="userSpaceOnUse">
<stop stop-color="#987328"/>
<stop offset="0.509615" stop-color="#ECAF44"/>
<stop offset="0.918269" stop-color="#A97B21"/>
</linearGradient>
<linearGradient id="paint2_linear_41_16" x1="74.5427" y1="35.5691" x2="18.5998" y2="160.787" gradientUnits="userSpaceOnUse">
<stop stop-color="#0E2A4D"/>
<stop offset="0.201923" stop-color="#1B3961"/>
<stop offset="0.475962" stop-color="#3B5A86"/>
</linearGradient>
<linearGradient id="paint3_linear_41_16" x1="62.0224" y1="50.4271" x2="57.4014" y2="183.648" gradientUnits="userSpaceOnUse">
<stop stop-color="#987328"/>
<stop offset="0.509615" stop-color="#ECAF44"/>
<stop offset="0.918269" stop-color="#A97B21"/>
</linearGradient>
<linearGradient id="paint4_linear_41_16" x1="44.4401" y1="140.413" x2="181.633" y2="126.425" gradientUnits="userSpaceOnUse">
<stop stop-color="#0E2A4D"/>
<stop offset="0.201923" stop-color="#1B3961"/>
<stop offset="0.475962" stop-color="#3B5A86"/>
</linearGradient>
<linearGradient id="paint5_linear_41_16" x1="63.6538" y1="143.755" x2="181.793" y2="80.5165" gradientUnits="userSpaceOnUse">
<stop stop-color="#987328"/>
<stop offset="0.509615" stop-color="#ECAF44"/>
<stop offset="0.918269" stop-color="#A97B21"/>
</linearGradient>
</defs>
</svg>
