<?xml version="1.0" standalone="no"?>
<!DOCTYPE svg PUBLIC "-//W3C//DTD SVG 1.1//EN" "http://www.w3.org/Graphics/SVG/1.1/DTD/svg11.dtd" >
<svg xmlns="http://www.w3.org/2000/svg">
<defs>
  <font id="fintrax-icons" horiz-adv-x="1000">
    <font-face font-family="fintrax-icons"
      units-per-em="1000" ascent="1000"
      descent="0" />
    <missing-glyph horiz-adv-x="0" />
    <glyph glyph-name="academic-cap"
      unicode="&#xE000;"
      horiz-adv-x="1000" d="M487.4674583333333 883.0566416666667C333.3955958333333 815.7147083333333 186.4239 733.1675333333333 48.7467458333333 636.6373708333333A31.253125 31.253125 0 0 1 58.4309875 580.9732916666667C87.352075 572.988375 115.9033291666667 563.91625 144.4498708333333 554.6875C134.8342 474.5725833333333 127.7920416666667 394.1522083333333 125.8138041666667 313.4765833333334A31.253125 31.253125 0 0 1 145.0195333333333 283.9355416666667C171.89265 272.7103333333335 195.5078541666667 255.1377916666668 221.8424458333333 242.7571666666667C211.7411166666667 223.7220833333333 201.4960083333333 204.5502083333333 185.953775 189.0462083333334A31.25 31.25 0 0 1 185.953775 144.8567916666668A31.25 31.25 0 0 1 230.1432291666667 144.8567916666668C250.0639416666667 164.7284583333335 263.226 189.2253750000001 276.204425 213.6230416666668C345.8846958333334 178.190041666667 417.553125 146.4392500000001 482.666 103.0273333333336A31.253125 31.253125 0 0 1 517.3340000000001 103.0273333333336C623.8377083333334 174.0288750000002 736.9480000000001 234.6062500000002 855.0618333333333 283.9355416666669A31.253125 31.253125 0 0 1 874.2675833333333 313.4765833333335C872.2875833333334 394.1520000000001 865.1645833333333 474.5726250000001 855.550125 554.6875000000002C884.0530833333332 563.9069583333335 912.6344583333334 572.9421250000001 941.650375 580.9732916666668A31.253125 31.253125 0 0 1 951.25325 636.71875C813.5747083333333 733.235075 666.6031666666667 815.7288291666666 512.5325416666667 883.0566416666667A31.253125 31.253125 0 0 1 487.4674583333334 883.0566416666667zM500 819.5800791666667C625.2682083333333 763.9875791666667 744.7103333333333 696.5840125 858.9680833333333 621.0123708333333C843.5415833333334 616.2067333333334 827.8427916666667 611.9800541666667 812.581375 606.8522125A31.25 31.25 0 0 1 812.4980416666667 606.8522125C704.752875 570.6230833333334 600.6380416666666 524.6640833333333 500 471.8424583333333C453.7959166666666 496.0899583333334 404.34125 513.0542916666666 356.5266916666667 533.8541666666667C408.1602833333333 563.8759583333333 459.658875 594.1599833333333 513.5091249999999 620.0358083333333A31.25 31.25 0 0 1 528.1575416666666 661.702475A31.25 31.25 0 0 1 486.4908749999999 676.3509125C417.004375 642.9616375 349.6980166666666 605.2658666666666 283.8541666666667 565.1855416666667C251.2183416666667 577.9710416666667 220.6659916666667 595.6742125000001 187.4186208333333 606.8522125C172.0898875 612.00495 156.472025 616.2086791666668 141.0319 621.0123708333333C255.2866041666667 696.5931041666668 374.7336 763.9774166666666 500 819.5800791666667zM205.2408833333333 531.331375C220.5644458333334 525.8398333333333 234.8140291666667 517.8105 250 511.962875V455.240875C245.1104166666667 452.2454583333334 238.0909 452.5751666666666 234.4563791666667 448.4863333333334C223.5207875 436.1837916666667 218.75 421.0069166666667 218.75 406.25C218.75 391.4930833333334 223.5207875 376.3162083333334 234.4563791666667 364.0136666666667C238.0909 359.9248333333334 245.1104166666667 360.2545416666667 250 357.2591250000001V343.75A31.253125 31.253125 0 0 1 250 343.6666666666667C250.0204625 329.416875 244.5553125 316.3491666666667 241.8619791666667 302.5696666666668C223.97665 310.9000416666668 207.9054666666666 322.6668750000001 189.7786458333333 330.4830833333334C191.9266875 397.6435 197.6638666666667 464.5696666666668 205.2408833333333 531.3294166666667zM794.8404999999999 531.331375C802.4166666666666 464.5712500000001 808.1535833333334 397.6457083333334 810.30275 330.4850416666667C702.3311249999999 283.9360000000001 598.4557083333333 228.5892500000001 500 164.3066250000001C436.0122083333333 206.0885833333334 366.5163375 237.9165416666667 298.3398416666667 272.2981666666667C304.6233791666667 295.8274166666668 312.535575 319.0580416666667 312.5 343.8313750000001V357.2591250000001C317.3895833333333 360.2545416666667 324.4091 359.9248333333334 328.0436208333333 364.0136666666667C338.9792125 376.3162083333334 343.75 391.4930833333334 343.75 406.25C343.75 421.0069166666667 338.9792125 436.1837916666667 328.0436208333333 448.4863333333334C324.4091 452.5751666666666 317.3895833333333 452.2454583333334 312.5 455.2408750000001V485.0260416666667C370.3203 460.5606666666667 429.8497499999999 440.0161666666667 485.2701666666667 410.4003750000001A31.253125 31.253125 0 0 1 514.7298333333333 410.4003750000001C604.5818333333333 458.4230833333334 698.9667083333334 496.9763750000001 794.8404999999999 531.331375z" />
    <glyph glyph-name="adjustments-horizontal"
      unicode="&#xE001;"
      horiz-adv-x="1000" d="M375 843.75C352.4305791666667 843.75 329.4412125 836.3750375 311.2792958333333 820.2311208333333C301.19725 811.2693041666666 299.8430666666667 794.8997875 294.5963541666667 781.25H156.25A31.25 31.25 0 0 1 125 750A31.25 31.25 0 0 1 156.25 718.75H294.5963541666667C299.8430666666667 705.1002125 301.19725 688.7306958333334 311.2792958333333 679.7688791666667C329.4412125 663.6249625 352.4305791666667 656.25 375 656.25C397.5694208333333 656.25 420.5587916666667 663.6249625 438.7207083333333 679.7688791666667C448.80275 688.7306958333334 450.1569166666667 705.1002125 455.4036666666667 718.75H843.75A31.25 31.25 0 0 1 875 750A31.25 31.25 0 0 1 843.75 781.25H455.4036666666667C450.1569166666667 794.8997875 448.80275 811.2693041666666 438.7207083333333 820.2311208333333C420.5587916666667 836.3750375 397.5694208333333 843.75 375 843.75zM375 781.25C383.68055 781.25 391.9412375 778.20825 397.2167958333333 773.5188791666667C402.4923583333333 768.8294958333333 406.25 763.0208083333333 406.25 750C406.25 736.9791916666667 402.4923583333333 731.1705041666667 397.2167958333333 726.4811208333333C391.9412375 721.7917333333334 383.68055 718.75 375 718.75C366.31945 718.75 358.0587625 721.7917333333334 352.7832041666667 726.4811208333333C347.5076416666667 731.1705041666667 343.75 736.9791916666667 343.75 750C343.75 763.0208083333333 347.5076416666667 768.8294958333333 352.7832041666667 773.5188791666667C358.0587625 778.2082666666666 366.31945 781.25 375 781.25zM625 593.75C602.4305833333333 593.75 579.4412083333333 586.3750375 561.2792916666666 570.231125C551.19725 561.2692916666667 549.8430833333333 544.8997916666667 544.596375 531.25H156.25A31.25 31.25 0 0 1 125 500A31.25 31.25 0 0 1 156.25 468.75H544.596375C549.8430833333333 455.1002083333334 551.19725 438.7307083333334 561.2792916666666 429.7688750000001C579.4412083333333 413.6249583333333 602.4305833333333 406.25 625 406.25C647.5694166666666 406.25 670.5587916666666 413.6249583333333 688.7207083333333 429.7688750000001C698.80275 438.7307083333334 700.1569166666666 455.1002083333334 705.403625 468.75H843.75A31.25 31.25 0 0 1 875 500A31.25 31.25 0 0 1 843.75 531.25H705.403625C700.1569166666666 544.8997916666667 698.80275 561.2692916666667 688.7207083333333 570.231125C670.5587916666666 586.3750375 647.5694166666666 593.75 625 593.75zM625 531.25C633.6805416666666 531.25 641.94125 528.2083333333334 647.2167916666666 523.518875C652.4923749999999 518.8295 656.25 513.0207916666668 656.25 500C656.25 486.9792083333333 652.4925 481.1705000000001 647.2167916666666 476.481125C641.94125 471.7917500000001 633.6805416666666 468.75 625 468.75C616.3194583333333 468.75 608.05875 471.7916666666667 602.7832083333333 476.481125C597.507625 481.1705000000001 593.75 486.9792083333333 593.75 500C593.75 513.0207916666668 597.5074999999999 518.8295 602.7832083333333 523.518875C608.05875 528.20825 616.3194583333333 531.25 625 531.25zM375 343.75C352.4305791666667 343.75 329.4412125 336.3750416666667 311.2792958333333 320.231125C301.19725 311.2692916666666 299.8430666666667 294.8997916666666 294.5963541666667 281.25H156.25A31.25 31.25 0 0 1 125 250A31.25 31.25 0 0 1 156.25 218.75H294.5963541666667C299.8430666666667 205.1002083333334 301.19725 188.7307083333334 311.2792958333333 179.7688750000001C329.4412125 163.6249583333333 352.4305791666667 156.25 375 156.25C397.5694208333333 156.25 420.5587916666667 163.6249583333333 438.7207083333333 179.7688750000001C448.80275 188.7307083333334 450.1569166666667 205.1002083333334 455.4036666666667 218.75H843.75A31.25 31.25 0 0 1 875 250A31.25 31.25 0 0 1 843.75 281.25H455.4036666666667C450.1569166666667 294.8997916666666 448.80275 311.2692916666666 438.7207083333333 320.231125C420.5587916666667 336.3750416666667 397.5694208333333 343.75 375 343.75zM375 281.25C383.68055 281.25 391.9412375 278.2083333333334 397.2167958333333 273.5188750000001C402.4923583333333 268.8295000000001 406.25 263.0207916666667 406.25 250C406.25 236.9792083333334 402.492375 231.1705000000001 397.2167958333333 226.481125C391.9412375 221.79175 383.68055 218.75 375 218.75C366.31945 218.75 358.0587625 221.79175 352.7832041666667 226.481125C347.5076416666667 231.1705000000001 343.75 236.9792083333334 343.75 250C343.75 263.0207916666667 347.5076416666667 268.8295000000001 352.7832041666667 273.5188750000001C358.0587625 278.2082500000002 366.31945 281.25 375 281.25z" />
    <glyph glyph-name="adjustments-vertical"
      unicode="&#xE002;"
      horiz-adv-x="1000" d="M250 875A31.25 31.25 0 0 1 218.75 843.75V455.403625C205.1002125 450.1569166666667 188.7306958333333 448.8027500000001 179.7688791666666 438.7207083333334C163.6249625 420.5587916666667 156.25 397.5694166666667 156.25 375C156.25 352.4305833333334 163.6249625 329.4412083333334 179.7688791666666 311.2792916666667C188.7306958333333 301.1972500000001 205.1002125 299.8430833333334 218.75 294.596375V156.25A31.25 31.25 0 0 1 250 125A31.25 31.25 0 0 1 281.25 156.25V294.596375C294.8997875 299.8430833333334 311.2693041666667 301.1972500000001 320.2311208333333 311.2792916666667C336.3750375 329.4412083333334 343.75 352.4305833333334 343.75 375C343.75 397.5694166666667 336.3750375 420.5587916666667 320.2311208333333 438.7207083333334C311.2693041666667 448.8027500000001 294.8997875 450.1569166666667 281.25 455.403625V843.75A31.25 31.25 0 0 1 250 875zM500 875A31.25 31.25 0 0 1 468.75 843.75V705.4036458333334C455.1002083333333 700.1569333333333 438.7307083333333 698.8027500000001 429.768875 688.7207041666667C413.6249625 670.5587875000001 406.25 647.5694208333334 406.25 625C406.25 602.4305791666667 413.6249625 579.4412083333334 429.768875 561.2792916666667C438.7307083333333 551.19725 455.1002083333333 549.8430833333334 468.75 544.5963333333334V156.25A31.25 31.25 0 0 1 500 125A31.25 31.25 0 0 1 531.25 156.25V544.5963333333334C544.8997916666666 549.8430833333333 561.2692916666666 551.1972499999999 570.2311249999999 561.2792916666667C586.3750416666667 579.4412083333334 593.75 602.4305791666667 593.75 625C593.75 647.5694208333334 586.3750416666667 670.5587875000001 570.2311249999999 688.7207041666667C561.2692916666666 698.8027500000001 544.8997916666666 700.1569333333333 531.25 705.4036458333334V843.75A31.25 31.25 0 0 1 500 875zM750 875A31.25 31.25 0 0 1 718.75 843.75V455.403625C705.1002083333334 450.1569166666667 688.7307083333334 448.80275 679.768875 438.7207083333334C663.6249583333333 420.5587916666667 656.25 397.5694166666667 656.25 375C656.25 352.4305833333334 663.6249583333333 329.4412083333334 679.768875 311.2792916666667C688.7307083333334 301.1972500000001 705.1002083333334 299.8430833333334 718.75 294.596375V156.25A31.25 31.25 0 0 1 750 125A31.25 31.25 0 0 1 781.25 156.25V294.596375C794.8997916666666 299.8430833333334 811.2692916666666 301.1972500000001 820.2311249999999 311.2792916666667C836.3750416666667 329.4412083333334 843.75 352.4305833333334 843.75 375C843.75 397.5694166666667 836.3750416666667 420.5587916666667 820.2311249999999 438.7207083333334C811.2692916666666 448.8027500000001 794.8997916666666 450.1569166666667 781.25 455.403625V843.75A31.25 31.25 0 0 1 750 875zM500 656.25C513.0207916666667 656.25 518.8294999999999 652.492375 523.518875 647.2167958333333C528.2082499999999 641.9412374999999 531.25 633.68055 531.25 625C531.25 616.31945 528.2083333333333 608.0587625000001 523.518875 602.7832041666667C518.8294999999999 597.5076416666667 513.0207916666667 593.75 500 593.75C486.9792083333332 593.75 481.1705 597.5076416666667 476.481125 602.7832041666667C471.79175 608.0587625000001 468.75 616.31945 468.75 625C468.75 633.68055 471.7916666666666 641.9412374999999 476.481125 647.2167958333333C481.1705 652.4923583333333 486.9792083333332 656.25 500 656.25zM250 406.25C263.0208083333333 406.25 268.8294958333334 402.4925000000001 273.5188791666667 397.2167916666667C278.2082666666667 391.94125 281.25 383.6805416666668 281.25 375C281.25 366.3194583333334 278.20825 358.0587500000001 273.5188791666667 352.7832083333334C268.8294958333334 347.5076250000001 263.0208083333333 343.75 250 343.75C236.9791916666667 343.75 231.1705041666667 347.5076250000001 226.4811208333334 352.7832083333334C221.7917333333333 358.0587500000001 218.75 366.3194583333334 218.75 375C218.75 383.6805416666668 221.7917333333333 391.94125 226.4811208333334 397.2167916666667C231.1705041666667 402.4923750000001 236.9791916666667 406.25 250 406.25zM750 406.25C763.0207916666666 406.25 768.8294999999999 402.4925000000001 773.518875 397.2167916666667C778.20825 391.94125 781.25 383.6805416666668 781.25 375C781.25 366.3194583333334 778.2083333333333 358.0587500000001 773.518875 352.7832083333334C768.8294999999999 347.5076250000001 763.0207916666666 343.75 750 343.75C736.9792083333333 343.75 731.1705 347.5075000000001 726.4811249999999 352.7832083333334C721.7917499999999 358.0587500000001 718.75 366.3194583333334 718.75 375C718.75 383.6805416666668 721.7916666666666 391.94125 726.4811249999999 397.2167916666667C731.1705 402.4923750000001 736.9792083333333 406.25 750 406.25z" />
    <glyph glyph-name="archive-box-arrow-down"
      unicode="&#xE003;"
      horiz-adv-x="1000" d="M140.625 875C97.8418291666667 875 62.5 839.6581708333333 62.5 796.875V734.375C62.5 697.0927875 91.2521333333333 669.7085708333334 126.4648458333333 662.1907541666667L151.1230458333333 242.6757916666667C154.9875 176.9177500000001 210.0163083333333 125.0169166666668 275.8789041666667 125H724.1210833333333C789.9837083333333 125.0169166666668 845.0124999999999 176.9177500000001 848.8769583333333 242.6757916666667L873.5351666666666 662.1907541666667C908.747875 669.7085708333334 937.5 697.0927875 937.5 734.375V796.875C937.5 839.6581708333333 902.1581666666666 875 859.375 875zM140.625 812.5H859.375C868.3417916666666 812.5 875 805.8417791666667 875 796.875V734.375C875 725.4082208333334 868.3417916666666 718.75 859.375 718.75H140.625C131.6582208333333 718.75 125 725.4082208333334 125 734.375V796.875C125 805.8417791666667 131.6582208333333 812.5 140.625 812.5zM189.3717458333333 656.25H810.62825L786.5397083333334 246.3378750000001C784.579625 212.9850416666667 757.5314999999999 187.487 724.1210833333333 187.5H275.8789041666667C242.4685041666667 187.487 215.4203625 212.9850416666667 213.4602875 246.3378750000001zM500 593.75A31.25 31.25 0 0 1 468.75 562.5V356.7708333333334L397.1354166666667 428.3854166666668A31.25 31.25 0 0 1 352.8645833333333 428.3854166666668A31.25 31.25 0 0 1 352.8645833333333 384.1145833333334L477.8645833333333 259.1145833333334A31.25 31.25 0 0 1 522.1354166666666 259.1145833333334L647.1354166666666 384.1145833333334A31.25 31.25 0 0 1 647.1354166666666 428.3854166666668A31.25 31.25 0 0 1 602.8645833333333 428.3854166666668L531.25 356.7708333333334V562.5A31.25 31.25 0 0 1 500 593.75z" />
    <glyph glyph-name="archive-box-x-mark"
      unicode="&#xE004;"
      horiz-adv-x="1000" d="M140.625 875C97.8418291666667 875 62.5 839.6581708333333 62.5 796.875V734.375C62.5 697.0927875 91.2521333333333 669.7085708333334 126.4648458333333 662.1907541666667L151.1230458333333 242.6757916666667C154.9875 176.9177500000001 210.0163083333333 125.0169166666668 275.8789041666667 125H724.1210833333333C789.9837083333333 125.0169166666668 845.0124999999999 176.9177500000001 848.8769583333333 242.6757916666667L873.5351666666666 662.1907541666667C908.747875 669.7085708333334 937.5 697.0927875 937.5 734.375V796.875C937.5 839.6581708333333 902.1581666666666 875 859.375 875zM140.625 812.5H859.375C868.3417916666666 812.5 875 805.8417791666667 875 796.875V734.375C875 725.4082208333334 868.3417916666666 718.75 859.375 718.75H140.625C131.6582208333333 718.75 125 725.4082208333334 125 734.375V796.875C125 805.8417791666667 131.6582208333333 812.5 140.625 812.5zM189.3717458333333 656.25H810.62825L786.5397083333334 246.3378750000001C784.579625 212.9850416666667 757.5314999999999 187.487 724.1210833333333 187.5H275.8789041666667C242.4685041666667 187.487 215.4203625 212.9850416666667 213.4602875 246.3378750000001zM406.25 546.875A31.25 31.25 0 0 1 384.1145833333333 537.7604166666667A31.25 31.25 0 0 1 384.1145833333333 493.4895833333334L455.7291666666666 421.875L384.1145833333333 350.2604166666668A31.25 31.25 0 0 1 384.1145833333333 305.9895833333334A31.25 31.25 0 0 1 428.3854166666667 305.9895833333334L500 377.6041666666668L571.6145833333333 305.9895833333334A31.25 31.25 0 0 1 615.8854166666666 305.9895833333334A31.25 31.25 0 0 1 615.8854166666666 350.2604166666668L544.2708333333333 421.875L615.8854166666666 493.4895833333334A31.25 31.25 0 0 1 615.8854166666666 537.7604166666667A31.25 31.25 0 0 1 571.6145833333333 537.7604166666667L500 466.1458333333334L428.3854166666667 537.7604166666667A31.25 31.25 0 0 1 406.25 546.875z" />
    <glyph glyph-name="archive-box"
      unicode="&#xE005;"
      horiz-adv-x="1000" d="M140.625 875C97.8418291666667 875 62.5 839.6581708333333 62.5 796.875V734.375C62.5 697.0927875 91.2521333333333 669.7085708333334 126.4648458333333 662.1907541666667L151.1230458333333 242.6757916666667C154.9875 176.9177500000001 210.0163083333333 125.0169166666668 275.8789041666667 125H724.1210833333333C789.9837083333333 125.0169166666668 845.0124999999999 176.9177500000001 848.8769583333333 242.6757916666667L873.5351666666666 662.1907541666667C908.747875 669.7085708333334 937.5 697.0927875 937.5 734.375V796.875C937.5 839.6581708333333 902.1581666666666 875 859.375 875zM140.625 812.5H859.375C868.3417916666666 812.5 875 805.8417791666667 875 796.875V734.375C875 725.4082208333334 868.3417916666666 718.75 859.375 718.75H140.625C131.6582208333333 718.75 125 725.4082208333334 125 734.375V796.875C125 805.8417791666667 131.6582208333333 812.5 140.625 812.5zM189.3717458333333 656.25H810.62825L786.5397083333334 246.3378750000001C784.579625 212.9850416666667 757.5314999999999 187.487 724.1210833333333 187.5H275.8789041666667C242.4685041666667 187.487 215.4203625 212.9850416666667 213.4602875 246.3378750000001zM416.6666666666667 562.5A31.25 31.25 0 0 1 385.4166666666667 531.25A31.25 31.25 0 0 1 416.6666666666667 500H583.3333333333333A31.25 31.25 0 0 1 614.5833333333333 531.25A31.25 31.25 0 0 1 583.3333333333333 562.5z" />
    <glyph glyph-name="arrow-down-circle"
      unicode="&#xE006;"
      horiz-adv-x="1000" d="M500 906.25C276.004725 906.25 93.75 723.9954416666667 93.75 500C93.75 276.0045416666667 276.004725 93.75 500 93.75C723.9952916666666 93.75 906.25 276.0045416666667 906.25 500C906.25 723.9954416666667 723.9952916666666 906.25 500 906.25zM500 843.75C690.217875 843.75 843.75 690.2179874999999 843.75 500C843.75 309.782 690.2178749999999 156.25 500 156.25C309.7821375 156.25 156.25 309.782 156.25 500C156.25 690.2179874999999 309.7821375 843.75 500 843.75zM500 687.5A31.25 31.25 0 0 1 468.75 656.25V419.2708333333334L397.1354166666667 490.8854166666667A31.25 31.25 0 0 1 352.8645833333333 490.8854166666667A31.25 31.25 0 0 1 352.8645833333333 446.6145833333334L477.8645833333333 321.6145833333334A31.25 31.25 0 0 1 500 312.5A31.25 31.25 0 0 1 522.1354166666666 321.6145833333334L647.1354166666666 446.6145833333334A31.25 31.25 0 0 1 647.1354166666666 490.8854166666667A31.25 31.25 0 0 1 602.8645833333333 490.8854166666667L531.25 419.2708333333334V656.25A31.25 31.25 0 0 1 500 687.5z" />
    <glyph glyph-name="arrow-down-left"
      unicode="&#xE007;"
      horiz-adv-x="1000" d="M812.5 843.75A31.25 31.25 0 0 1 790.3645833333333 834.6354166666667L218.75 263.0208333333334V656.25A31.25 31.25 0 0 1 187.5 687.5A31.25 31.25 0 0 1 156.25 656.25V187.5A31.25 31.25 0 0 1 165.3645833333333 165.3645833333334A31.25 31.25 0 0 1 187.5 156.25H656.25A31.25 31.25 0 0 1 687.5 187.5A31.25 31.25 0 0 1 656.25 218.75H263.0208333333333L834.6354166666666 790.3645833333334A31.25 31.25 0 0 1 834.6354166666666 834.6354166666667A31.25 31.25 0 0 1 812.5 843.75z" />
    <glyph glyph-name="arrow-down-on-square-stack"
      unicode="&#xE008;"
      horiz-adv-x="1000" d="M437.5 968.75A31.25 31.25 0 0 1 406.25 937.5V481.7708333333334L334.6354166666667 553.3854166666667A31.25 31.25 0 0 1 290.3645833333333 553.3854166666667A31.25 31.25 0 0 1 290.3645833333333 509.1145833333334L415.3645833333333 384.1145833333334A31.25 31.25 0 0 1 437.5 375A31.25 31.25 0 0 1 459.6354166666666 384.1145833333334L584.6354166666666 509.1145833333334A31.25 31.25 0 0 1 584.6354166666666 553.3854166666667A31.25 31.25 0 0 1 540.3645833333333 553.3854166666667L468.75 481.7708333333334V937.5A31.25 31.25 0 0 1 437.5 968.75zM281.25 718.75C212.5846208333333 718.75 156.25 662.4153791666668 156.25 593.75V281.25C156.25 212.5846250000001 212.5846208333333 156.25 281.25 156.25C281.25 87.5846250000001 337.5846208333333 31.25 406.25 31.25H718.75C787.4153749999999 31.25 843.75 87.5846250000001 843.75 156.25V468.75C843.75 537.415375 787.4153749999999 593.75 718.75 593.75C718.75 662.4153791666668 662.4153749999999 718.75 593.75 718.75H562.5A31.25 31.25 0 0 1 531.25 687.5A31.25 31.25 0 0 1 562.5 656.25H593.75C628.6379166666667 656.25 656.25 628.6379083333334 656.25 593.75V562.5V281.25C656.25 246.3620833333335 628.6379166666667 218.75 593.75 218.75H312.5H281.25C246.3620916666667 218.75 218.75 246.3620833333335 218.75 281.25V593.75C218.75 628.6379083333334 246.3620916666667 656.25 281.25 656.25H312.5A31.25 31.25 0 0 1 343.75 687.5A31.25 31.25 0 0 1 312.5 718.75zM718.75 531.25C753.6379166666666 531.25 781.25 503.6379166666667 781.25 468.75V156.25C781.25 121.3620833333334 753.6379166666666 93.75 718.75 93.75H406.25C371.3620916666667 93.75 343.75 121.3620833333334 343.75 156.25H593.75C662.4153749999999 156.25 718.75 212.5846250000001 718.75 281.25z" />
    <glyph glyph-name="arrow-down-on-square"
      unicode="&#xE009;"
      horiz-adv-x="1000" d="M500 937.5A31.25 31.25 0 0 1 468.75 906.25V450.5208333333334L397.1354166666667 522.1354166666667A31.25 31.25 0 0 1 352.8645833333333 522.1354166666667A31.25 31.25 0 0 1 352.8645833333333 477.8645833333334L477.8645833333333 352.8645833333334A31.25 31.25 0 0 1 522.1354166666666 352.8645833333334L647.1354166666666 477.8645833333334A31.25 31.25 0 0 1 647.1354166666666 522.1354166666667A31.25 31.25 0 0 1 602.8645833333333 522.1354166666667L531.25 450.5208333333334V906.25A31.25 31.25 0 0 1 500 937.5zM312.5 687.5C243.8346208333333 687.5 187.5 631.1653791666668 187.5 562.5V187.5C187.5 118.8346250000001 243.8346208333333 62.5 312.5 62.5H687.5C756.1653749999999 62.5 812.5 118.8346250000001 812.5 187.5V562.5C812.5 631.1653791666668 756.1653749999999 687.5 687.5 687.5H625A31.25 31.25 0 0 1 593.75 656.25A31.25 31.25 0 0 1 625 625H687.5C722.3879166666666 625 750 597.3879083333334 750 562.5V187.5C750 152.6120833333334 722.3879166666666 125 687.5 125H312.5C277.6120916666667 125 250 152.6120833333334 250 187.5V562.5C250 597.3879083333334 277.6120916666667 625 312.5 625H375A31.25 31.25 0 0 1 406.25 656.25A31.25 31.25 0 0 1 375 687.5z" />
    <glyph glyph-name="arrow-down-right"
      unicode="&#xE00A;"
      horiz-adv-x="1000" d="M187.5 843.75A31.25 31.25 0 0 1 165.3645833333333 834.6354166666667A31.25 31.25 0 0 1 165.3645833333333 790.3645833333334L736.9791666666666 218.75H343.75A31.25 31.25 0 0 1 312.5 187.5A31.25 31.25 0 0 1 343.75 156.25H812.5A31.25 31.25 0 0 1 834.6354166666666 165.3645833333334A31.25 31.25 0 0 1 842.6920416666667 184.8958333333334A31.25 31.25 0 0 1 843.75 187.5V656.25A31.25 31.25 0 0 1 812.5 687.5A31.25 31.25 0 0 1 781.25 656.25V263.0208333333334L209.6354166666667 834.6354166666667A31.25 31.25 0 0 1 187.5 843.75z" />
    <glyph glyph-name="arrow-down-tray"
      unicode="&#xE00B;"
      horiz-adv-x="1000" d="M500 906.25A31.25 31.25 0 0 1 468.75 875V388.0208333333334L334.6354166666667 522.1354166666667A31.25 31.25 0 0 1 290.3645833333333 522.1354166666667A31.25 31.25 0 0 1 290.3645833333333 477.8645833333334L477.8645833333333 290.3645833333334A31.25 31.25 0 0 1 522.1354166666666 290.3645833333334L709.6354166666666 477.8645833333334A31.25 31.25 0 0 1 709.6354166666666 522.1354166666667A31.25 31.25 0 0 1 665.3645833333333 522.1354166666667L531.25 388.0208333333334V875A31.25 31.25 0 0 1 500 906.25zM125 343.75A31.25 31.25 0 0 1 93.75 312.5V218.75C93.75 150.0846250000001 150.0846208333333 93.75 218.75 93.75H781.25C849.9153749999999 93.75 906.25 150.0846250000001 906.25 218.75V312.5A31.25 31.25 0 0 1 875 343.75A31.25 31.25 0 0 1 843.75 312.5V218.75C843.75 183.8620833333334 816.1379166666666 156.25 781.25 156.25H218.75C183.8620916666667 156.25 156.25 183.8620833333334 156.25 218.75V312.5A31.25 31.25 0 0 1 125 343.75z" />
    <glyph glyph-name="arrow-down"
      unicode="&#xE00C;"
      horiz-adv-x="1000" d="M500 906.25A31.25 31.25 0 0 1 468.75 875V200.5208333333334L209.6354166666667 459.6354166666667A31.25 31.25 0 0 1 165.3645833333333 459.6354166666667A31.25 31.25 0 0 1 165.3645833333333 415.3645833333334L477.8645833333333 102.8645833333334A31.25 31.25 0 0 1 500 93.75A31.25 31.25 0 0 1 522.1354166666666 102.8645833333334L834.6354166666666 415.3645833333334A31.25 31.25 0 0 1 834.6354166666666 459.6354166666667A31.25 31.25 0 0 1 790.3645833333333 459.6354166666667L531.25 200.5208333333334V875A31.25 31.25 0 0 1 500 906.25z" />
    <glyph glyph-name="arrow-left-circle"
      unicode="&#xE00D;"
      horiz-adv-x="1000" d="M500 906.25C276.004725 906.25 93.75 723.9954416666667 93.75 500C93.75 276.0045416666667 276.004725 93.75 500 93.75C723.9952916666666 93.75 906.25 276.0045416666667 906.25 500C906.25 723.9954416666667 723.9952916666666 906.25 500 906.25zM500 843.75C690.217875 843.75 843.75 690.2179874999999 843.75 500C843.75 309.782 690.2178749999999 156.25 500 156.25C309.7821375 156.25 156.25 309.782 156.25 500C156.25 690.2179874999999 309.7821375 843.75 500 843.75zM468.75 656.25A31.25 31.25 0 0 1 446.6145833333333 647.1354166666667L321.6145833333333 522.1354166666667A31.25 31.25 0 0 1 312.5 500A31.25 31.25 0 0 1 321.6145833333333 477.8645833333334L446.6145833333333 352.8645833333334A31.25 31.25 0 0 1 490.8854166666666 352.8645833333334A31.25 31.25 0 0 1 490.8854166666666 397.1354166666668L419.2708333333333 468.75H656.25A31.25 31.25 0 0 1 687.5 500A31.25 31.25 0 0 1 656.25 531.25H419.2708333333333L490.8854166666666 602.8645833333334A31.25 31.25 0 0 1 490.8854166666666 647.1354166666667A31.25 31.25 0 0 1 468.75 656.25z" />
    <glyph glyph-name="arrow-left-end-on-rectangle"
      unicode="&#xE00E;"
      horiz-adv-x="1000" d="M312.5 906.25C243.8346208333333 906.25 187.5 849.9153791666666 187.5 781.25V218.75C187.5 150.0846250000001 243.8346208333333 93.75 312.5 93.75H562.5C631.1653749999999 93.75 687.5 150.0846250000001 687.5 218.75V375A31.25 31.25 0 0 1 656.25 406.25A31.25 31.25 0 0 1 625 375V218.75C625 183.8620833333334 597.3879166666667 156.25 562.5 156.25H312.5C277.6120916666667 156.25 250 183.8620833333334 250 218.75V781.25C250 816.1379083333334 277.6120916666667 843.75 312.5 843.75H562.5C597.3879166666667 843.75 625 816.1379083333334 625 781.25V625A31.25 31.25 0 0 1 656.25 593.75A31.25 31.25 0 0 1 687.5 625V781.25C687.5 849.9153791666666 631.1653749999999 906.25 562.5 906.25zM500 656.25A31.25 31.25 0 0 1 477.8645833333333 647.1354166666667L352.8645833333333 522.1354166666667A31.25 31.25 0 0 1 352.8645833333333 477.8645833333334L477.8645833333333 352.8645833333334A31.25 31.25 0 0 1 522.1354166666666 352.8645833333334A31.25 31.25 0 0 1 522.1354166666666 397.1354166666668L450.5208333333333 468.75H906.25A31.25 31.25 0 0 1 937.5 500A31.25 31.25 0 0 1 906.25 531.25H450.5208333333333L522.1354166666666 602.8645833333334A31.25 31.25 0 0 1 522.1354166666666 647.1354166666667A31.25 31.25 0 0 1 500 656.25z" />
    <glyph glyph-name="arrow-left-start-on-rectangle"
      unicode="&#xE00F;"
      horiz-adv-x="1000" d="M437.5 906.25C368.8346208333333 906.25 312.5 849.9153791666666 312.5 781.25V625A31.25 31.25 0 0 1 343.75 593.75A31.25 31.25 0 0 1 375 625V781.25C375 816.1379083333334 402.6120916666667 843.75 437.5 843.75H687.5C722.3879166666666 843.75 750 816.1379083333334 750 781.25V218.75C750 183.8620833333334 722.3879166666666 156.25 687.5 156.25H437.5C402.6120916666667 156.25 375 183.8620833333334 375 218.75V375A31.25 31.25 0 0 1 343.75 406.25A31.25 31.25 0 0 1 312.5 375V218.75C312.5 150.0846250000001 368.8346208333333 93.75 437.5 93.75H687.5C756.1653749999999 93.75 812.5 150.0846250000001 812.5 218.75V781.25C812.5 849.9153791666666 756.1653749999999 906.25 687.5 906.25zM218.75 656.25A31.25 31.25 0 0 1 196.6145833333333 647.1354166666667L71.6145833333333 522.1354166666667A31.25 31.25 0 0 1 62.5 500A31.25 31.25 0 0 1 71.6145833333333 477.8645833333334L196.6145833333333 352.8645833333334A31.25 31.25 0 0 1 240.8854166666667 352.8645833333334A31.25 31.25 0 0 1 240.8854166666667 397.1354166666668L169.2708333333333 468.75H625A31.25 31.25 0 0 1 656.25 500A31.25 31.25 0 0 1 625 531.25H169.2708333333333L240.8854166666667 602.8645833333334A31.25 31.25 0 0 1 240.8854166666667 647.1354166666667A31.25 31.25 0 0 1 218.75 656.25z" />
    <glyph glyph-name="arrow-left"
      unicode="&#xE010;"
      horiz-adv-x="1000" d="M437.5 843.75A31.25 31.25 0 0 1 415.3645833333333 834.6354166666667L102.8645833333333 522.1354166666667A31.25 31.25 0 0 1 93.75 500A31.25 31.25 0 0 1 102.8645833333333 477.8645833333334L415.3645833333333 165.3645833333334A31.25 31.25 0 0 1 459.6354166666666 165.3645833333334A31.25 31.25 0 0 1 459.6354166666666 209.6354166666668L200.5208333333333 468.75H875A31.25 31.25 0 0 1 906.25 500A31.25 31.25 0 0 1 875 531.25H200.5208333333333L459.6354166666666 790.3645833333334A31.25 31.25 0 0 1 459.6354166666666 834.6354166666667A31.25 31.25 0 0 1 437.5 843.75z" />
    <glyph glyph-name="arrow-long-down"
      unicode="&#xE011;"
      horiz-adv-x="1000" d="M500 906.25A31.25 31.25 0 0 1 468.75 875V200.5208333333334L365.8854166666667 303.3854166666668A31.25 31.25 0 0 1 321.6145833333333 303.3854166666668A31.25 31.25 0 0 1 321.6145833333333 259.1145833333334L477.8645833333333 102.8645833333334A31.25 31.25 0 0 1 500 93.75A31.25 31.25 0 0 1 522.1354166666666 102.8645833333334L678.3854166666666 259.1145833333334A31.25 31.25 0 0 1 678.3854166666666 303.3854166666668A31.25 31.25 0 0 1 634.1145833333333 303.3854166666668L531.25 200.5208333333334V875A31.25 31.25 0 0 1 500 906.25z" />
    <glyph glyph-name="arrow-long-left"
      unicode="&#xE012;"
      horiz-adv-x="1000" d="M281.25 687.5A31.25 31.25 0 0 1 259.1145833333333 678.3854166666667L102.8645833333333 522.1354166666667A31.25 31.25 0 0 1 93.75 500A31.25 31.25 0 0 1 102.8645833333333 477.8645833333334L259.1145833333333 321.6145833333334A31.25 31.25 0 0 1 303.3854166666667 321.6145833333334A31.25 31.25 0 0 1 303.3854166666667 365.8854166666668L200.5208333333333 468.75H875A31.25 31.25 0 0 1 906.25 500A31.25 31.25 0 0 1 875 531.25H200.5208333333333L303.3854166666667 634.1145833333334A31.25 31.25 0 0 1 303.3854166666667 678.3854166666667A31.25 31.25 0 0 1 281.25 687.5z" />
    <glyph glyph-name="arrow-long-right"
      unicode="&#xE013;"
      horiz-adv-x="1000" d="M718.75 687.5A31.25 31.25 0 0 1 696.6145833333333 678.3854166666667A31.25 31.25 0 0 1 696.6145833333333 634.1145833333334L799.4791666666666 531.25H125A31.25 31.25 0 0 1 93.75 500A31.25 31.25 0 0 1 125 468.75H799.4791666666666L696.6145833333333 365.8854166666668A31.25 31.25 0 0 1 696.6145833333333 321.6145833333334A31.25 31.25 0 0 1 740.8854166666666 321.6145833333334L897.1354166666666 477.8645833333334A31.25 31.25 0 0 1 905.1920416666666 497.3958333333334A31.25 31.25 0 0 1 906.25 500A31.25 31.25 0 0 1 905.1920833333332 505.3710833333334A31.25 31.25 0 0 1 905.1920833333332 508.0565000000001A31.25 31.25 0 0 1 904.3783333333332 509.4398333333335A31.25 31.25 0 0 1 897.1354999999999 522.1351666666668L740.8854999999999 678.3851666666668A31.25 31.25 0 0 1 718.75 687.5z" />
    <glyph glyph-name="arrow-long-up"
      unicode="&#xE014;"
      horiz-adv-x="1000" d="M500 906.25A31.25 31.25 0 0 1 477.8645833333333 897.1354166666666L321.6145833333333 740.8854166666667A31.25 31.25 0 0 1 321.6145833333333 696.6145833333334A31.25 31.25 0 0 1 365.8854166666667 696.6145833333334L468.75 799.4791666666667V125A31.25 31.25 0 0 1 500 93.75A31.25 31.25 0 0 1 531.25 125V799.4791666666667L634.1145833333333 696.6145833333334A31.25 31.25 0 0 1 678.3854166666666 696.6145833333334A31.25 31.25 0 0 1 678.3854166666666 740.8854166666667L522.1354166666666 897.1354166666666A31.25 31.25 0 0 1 500 906.25z" />
    <glyph glyph-name="arrow-path-rounded-square"
      unicode="&#xE015;"
      horiz-adv-x="1000" d="M345.0520833333333 837.890625C247.3858333333333 830.6360916666667 169.3246791666667 752.5436333333333 162.109375 654.8665375C161.3911708333333 645.5590416666666 160.7421208333333 636.2014875 160.15625 626.953125A31.25 31.25 0 0 1 189.3717458333333 593.8313791666667A31.25 31.25 0 0 1 222.4934875 623.046875C223.0709041666667 632.1614958333333 223.7533625 641.1747875000001 224.4466125 650.1464833333333A31.253125 31.253125 0 0 1 224.4466125 650.3094C229.41595 717.5815541666666 282.4184458333334 770.58405 349.6907541666667 775.5533875A31.253125 31.253125 0 0 1 349.7720041666667 775.5533875C449.7847416666667 783.0986291666667 550.2149916666666 783.0986291666667 650.2277416666667 775.5533875A31.253125 31.253125 0 0 1 650.3110750000001 775.5533875C717.5833666666667 770.58405 770.5858666666666 717.5815541666666 775.5552 650.3092458333333A31.253125 31.253125 0 0 1 775.5552 650.2279958333334C777.3556166666666 626.5695416666667 777.2993666666666 602.4185625 778.2406166666667 578.53205L709.6354166666666 647.1354166666667A31.25 31.25 0 0 1 665.3645833333333 647.1354166666667A31.25 31.25 0 0 1 665.3645833333333 602.8645833333334L790.3645833333333 477.8645833333334A31.25 31.25 0 0 1 812.5 468.75A31.25 31.25 0 0 1 834.6354166666666 477.8645833333334L959.6354166666666 602.8645833333334A31.25 31.25 0 0 1 959.6354166666666 647.1354166666667A31.25 31.25 0 0 1 915.3645833333331 647.1354166666667L840.9830833333333 572.7539166666667C840.0144166666666 600.1428541666667 839.9532916666666 627.7461666666667 837.890625 654.8665375V654.9479166666667C830.6380833333334 752.587125 752.5871249999999 830.6381 654.9479166666666 837.890625C551.8321666666666 845.6699708333333 448.2494583333333 845.6658833333333 345.1334625 837.890625zM187.5 531.25A31.25 31.25 0 0 1 165.3645833333333 522.1354166666667L40.3645833333333 397.1354166666668A31.25 31.25 0 0 1 40.3645833333333 352.8645833333334A31.25 31.25 0 0 1 84.6354166666667 352.8645833333334L159.0169291666667 427.2460833333335C159.9865125 399.8300416666667 160.0435958333333 372.1990416666668 162.1093875 345.0520833333334C169.3619125 247.4128750000001 247.4128875 169.3619166666669 345.0520958333334 162.109375C448.1955125 154.3244166666667 551.8045124999999 154.3244166666667 654.9479291666667 162.109375C752.5600958333333 169.3598750000001 830.6009291666667 247.3693750000001 837.8906374999999 344.9707083333334V345.1332083333333C838.6089708333333 354.4407083333334 839.2577208333333 363.79825 839.8435541666665 373.046625A31.25 31.25 0 0 1 810.6280541666665 406.168375A31.25 31.25 0 0 1 777.5063041666666 376.952875C776.9288041666665 367.83825 776.2463041666666 358.8249583333334 775.5533875 349.85325A31.253125 31.253125 0 0 1 775.5533875 349.69075C770.5840541666666 282.4184583333332 717.5815541666666 229.4159583333334 650.3092624999999 224.4466250000001A31.253125 31.253125 0 0 1 650.2259291666666 224.4466250000001C550.2140125 216.898 449.7820958333333 216.898 349.7701916666666 224.4466250000001A31.253125 31.253125 0 0 1 349.6889416666666 224.4466250000001C282.4184458333334 229.4159583333334 229.41595 282.4184583333335 224.4466125 349.6907500000001A31.253125 31.253125 0 0 1 224.4466125 349.7740833333335C222.6463041666667 373.4305833333334 222.7025291666666 397.5815833333334 221.7610666666666 421.4680833333333L290.3645833333333 352.8645833333334A31.25 31.25 0 0 1 334.6354166666667 352.8645833333334A31.25 31.25 0 0 1 334.6354166666667 397.1354166666668L209.6354166666667 522.1354166666667A31.25 31.25 0 0 1 187.5 531.25z" />
    <glyph glyph-name="arrow-right-circle"
      unicode="&#xE016;"
      horiz-adv-x="1000" d="M500 906.25C276.004725 906.25 93.75 723.9954416666667 93.75 500C93.75 276.0045416666667 276.004725 93.75 500 93.75C723.9952916666666 93.75 906.25 276.0045416666667 906.25 500C906.25 723.9954416666667 723.9952916666666 906.25 500 906.25zM500 843.75C690.217875 843.75 843.75 690.2179874999999 843.75 500C843.75 309.782 690.2178749999999 156.25 500 156.25C309.7821375 156.25 156.25 309.782 156.25 500C156.25 690.2179874999999 309.7821375 843.75 500 843.75zM531.25 656.25A31.25 31.25 0 0 1 509.1145833333333 647.1354166666667A31.25 31.25 0 0 1 509.1145833333333 602.8645833333334L580.7291666666666 531.25H343.75A31.25 31.25 0 0 1 312.5 500A31.25 31.25 0 0 1 343.75 468.75H580.7291666666666L509.1145833333333 397.1354166666668A31.25 31.25 0 0 1 509.1145833333333 352.8645833333334A31.25 31.25 0 0 1 553.3854166666666 352.8645833333334L678.3854166666666 477.8645833333334A31.25 31.25 0 0 1 686.4420416666667 491.9433750000001A31.25 31.25 0 0 1 686.4420416666667 497.3958333333334A31.25 31.25 0 0 1 687.5 500A31.25 31.25 0 0 1 686.4420833333332 505.3710833333334A31.25 31.25 0 0 1 686.4420833333332 508.0565000000001A31.25 31.25 0 0 1 685.6283333333332 509.4398333333335A31.25 31.25 0 0 1 678.3854999999999 522.1351666666668L553.3854999999999 647.1351666666668A31.25 31.25 0 0 1 531.25 656.25z" />
    <glyph glyph-name="arrow-right-end-on-rectangle"
      unicode="&#xE017;"
      horiz-adv-x="1000" d="M437.5 906.25C368.8346208333333 906.25 312.5 849.9153791666666 312.5 781.25V625A31.25 31.25 0 0 1 343.75 593.75A31.25 31.25 0 0 1 375 625V781.25C375 816.1379083333334 402.6120916666667 843.75 437.5 843.75H687.5C722.3879166666666 843.75 750 816.1379083333334 750 781.25V218.75C750 183.8620833333334 722.3879166666666 156.25 687.5 156.25H437.5C402.6120916666667 156.25 375 183.8620833333334 375 218.75V375A31.25 31.25 0 0 1 343.75 406.25A31.25 31.25 0 0 1 312.5 375V218.75C312.5 150.0846250000001 368.8346208333333 93.75 437.5 93.75H687.5C756.1653749999999 93.75 812.5 150.0846250000001 812.5 218.75V781.25C812.5 849.9153791666666 756.1653749999999 906.25 687.5 906.25zM500 656.25A31.25 31.25 0 0 1 477.8645833333333 647.1354166666667A31.25 31.25 0 0 1 477.8645833333333 602.8645833333334L549.4791666666666 531.25H93.75A31.25 31.25 0 0 1 62.5 500A31.25 31.25 0 0 1 93.75 468.75H549.4791666666666L477.8645833333333 397.1354166666668A31.25 31.25 0 0 1 477.8645833333333 352.8645833333334A31.25 31.25 0 0 1 522.1354166666666 352.8645833333334L647.1354166666666 477.8645833333334A31.25 31.25 0 0 1 655.1920416666666 497.3958333333334A31.25 31.25 0 0 1 656.25 500A31.25 31.25 0 0 1 655.1920833333334 505.3710833333334A31.25 31.25 0 0 1 655.1920833333334 508.0565000000001A31.25 31.25 0 0 1 654.3783333333333 509.4398333333335A31.25 31.25 0 0 1 647.1355 522.1351666666668L522.1355 647.1351666666668A31.25 31.25 0 0 1 500 656.25z" />
    <glyph glyph-name="arrow-right-start-on-rectangle"
      unicode="&#xE018;"
      horiz-adv-x="1000" d="M312.5 906.25C243.8346208333333 906.25 187.5 849.9153791666666 187.5 781.25V218.75C187.5 150.0846250000001 243.8346208333333 93.75 312.5 93.75H562.5C631.1653749999999 93.75 687.5 150.0846250000001 687.5 218.75V375A31.25 31.25 0 0 1 656.25 406.25A31.25 31.25 0 0 1 625 375V218.75C625 183.8620833333334 597.3879166666667 156.25 562.5 156.25H312.5C277.6120916666667 156.25 250 183.8620833333334 250 218.75V781.25C250 816.1379083333334 277.6120916666667 843.75 312.5 843.75H562.5C597.3879166666667 843.75 625 816.1379083333334 625 781.25V625A31.25 31.25 0 0 1 656.25 593.75A31.25 31.25 0 0 1 687.5 625V781.25C687.5 849.9153791666666 631.1653749999999 906.25 562.5 906.25zM781.25 656.25A31.25 31.25 0 0 1 759.1145833333333 647.1354166666667A31.25 31.25 0 0 1 759.1145833333333 602.8645833333334L830.7291666666666 531.25H375A31.25 31.25 0 0 1 343.75 500A31.25 31.25 0 0 1 375 468.75H830.7291666666666L759.1145833333333 397.1354166666668A31.25 31.25 0 0 1 759.1145833333333 352.8645833333334A31.25 31.25 0 0 1 803.3854166666666 352.8645833333334L928.3854166666666 477.8645833333334A31.25 31.25 0 0 1 936.4420416666666 497.3958333333334A31.25 31.25 0 0 1 937.5 500A31.25 31.25 0 0 1 936.4420833333332 505.3710833333334A31.25 31.25 0 0 1 936.4420833333332 508.0565000000001A31.25 31.25 0 0 1 935.6283333333332 509.4398333333335A31.25 31.25 0 0 1 928.3854999999998 522.1351666666668L803.3854999999999 647.1351666666668A31.25 31.25 0 0 1 781.25 656.25z" />
    <glyph glyph-name="arrow-right"
      unicode="&#xE019;"
      horiz-adv-x="1000" d="M562.5 843.75A31.25 31.25 0 0 1 540.3645833333333 834.6354166666667A31.25 31.25 0 0 1 540.3645833333333 790.3645833333334L799.4791666666666 531.25H125A31.25 31.25 0 0 1 93.75 500A31.25 31.25 0 0 1 125 468.75H799.4791666666666L540.3645833333333 209.6354166666668A31.25 31.25 0 0 1 540.3645833333333 165.3645833333334A31.25 31.25 0 0 1 584.6354166666666 165.3645833333334L897.1354166666666 477.8645833333334A31.25 31.25 0 0 1 905.1920416666666 497.3958333333334A31.25 31.25 0 0 1 906.25 500A31.25 31.25 0 0 1 905.1920833333332 505.3710833333334A31.25 31.25 0 0 1 905.1920833333332 508.0565000000001A31.25 31.25 0 0 1 904.3783333333332 509.4398333333335A31.25 31.25 0 0 1 897.1354999999999 522.1351666666668L584.6354999999999 834.6351666666668A31.25 31.25 0 0 1 562.5 843.75z" />
    <glyph glyph-name="arrow-top-right-on-square"
      unicode="&#xE01A;"
      horiz-adv-x="1000" d="M656.25 906.25A31.25 31.25 0 0 1 625 875A31.25 31.25 0 0 1 656.25 843.75H799.4791666666666L290.3645833333333 334.6354166666668A31.25 31.25 0 0 1 290.3645833333333 290.3645833333334A31.25 31.25 0 0 1 334.6354166666667 290.3645833333334L843.75 799.4791666666667V656.25A31.25 31.25 0 0 1 875 625A31.25 31.25 0 0 1 906.25 656.25V875A31.25 31.25 0 0 1 903.8899583333334 886.9628916666667A31.25 31.25 0 0 1 897.1354166666666 897.1354166666666A31.25 31.25 0 0 1 886.9628749999999 903.889975A31.25 31.25 0 0 1 875 906.25zM218.75 781.25C150.0846208333333 781.25 93.75 724.9153791666668 93.75 656.25V218.75C93.75 150.0846250000001 150.0846208333333 93.75 218.75 93.75H656.25C724.9153749999999 93.75 781.25 150.0846250000001 781.25 218.75V562.5A31.25 31.25 0 0 1 750 593.75A31.25 31.25 0 0 1 718.75 562.5V218.75C718.75 183.8620833333334 691.1379166666666 156.25 656.25 156.25H218.75C183.8620916666667 156.25 156.25 183.8620833333334 156.25 218.75V656.25C156.25 691.1379083333334 183.8620916666667 718.75 218.75 718.75H562.5A31.25 31.25 0 0 1 593.75 750A31.25 31.25 0 0 1 562.5 781.25z" />
    <glyph glyph-name="arrow-trending-down"
      unicode="&#xE01B;"
      horiz-adv-x="1000" d="M93.75 781.25A31.25 31.25 0 0 1 71.6145833333333 772.1354166666667A31.25 31.25 0 0 1 71.6145833333333 727.8645833333334L352.8645833333333 446.6145833333334A31.253125 31.253125 0 0 1 397.1354166666667 446.6145833333334L553.2226666666666 602.7832041666667C624.5057083333332 541.56975 678.5083333333332 462.5445416666668 702.7994583333333 371.3378750000001L715.5761666666666 323.4863333333334L551.3509166666666 418.2942500000001A31.25 31.25 0 0 1 508.6262916666666 406.9010416666668A31.25 31.25 0 0 1 520.1009166666666 364.1764166666668L749.6744583333333 231.6080833333333A31.25 31.25 0 0 1 773.4375 228.5155833333333A31.25 31.25 0 0 1 792.3990833333334 243.0012500000001V243.0845833333333L924.9674583333332 472.6581666666666A31.25 31.25 0 0 1 913.5742083333334 515.3827916666665A31.25 31.25 0 0 1 870.849625 503.9081666666665L775.9602916666666 339.6829166666666L763.1835833333333 387.4530833333331V387.5364166666665C732.9639166666666 500.9345 665.87325 601.0891791666667 572.5097499999999 672.2005208333334A31.253125 31.253125 0 0 1 531.4941249999999 669.4336041666667L375 513.0208333333334L115.8854166666667 772.1354166666667A31.25 31.25 0 0 1 93.75 781.25z" />
    <glyph glyph-name="arrow-trending-up"
      unicode="&#xE01C;"
      horiz-adv-x="1000" d="M674.5605416666666 756.8359375A31.25 31.25 0 0 1 634.1959583333334 738.8509125A31.25 31.25 0 0 1 652.099625 698.4863291666667L829.2643333333333 630.452475L783.9355416666666 610.2701833333333C685.4019166666667 566.564375 607.1463333333334 490.585 551.2695416666666 399.1699166666667L397.1354166666667 553.3854166666667A31.253125 31.253125 0 0 1 352.8645833333333 553.3854166666667L71.6145833333333 272.1354166666668A31.25 31.25 0 0 1 71.6145833333333 227.8645833333334A31.25 31.25 0 0 1 115.8854166666667 227.8645833333334L375 486.9791666666667L532.3079583333333 329.752625A31.253125 31.253125 0 0 1 582.2753749999999 337.7278750000001C630.8943333333333 433.5594166666666 711.087125 509.5915833333333 809.3261666666666 553.1412916666666A31.253125 31.253125 0 0 1 809.4094999999999 553.2246250000001L854.6569166666666 573.3255416666666L786.6230416666666 396.2422083333334A31.25 31.25 0 0 1 804.6080833333332 355.877625A31.25 31.25 0 0 1 844.9726666666666 373.862625L940.02475 621.4212291666666A31.25 31.25 0 0 1 940.91975 626.7923208333333A31.25 31.25 0 0 1 941.6522499999998 630.9426958333332A31.25 31.25 0 0 1 941.5689166666666 635.66275A31.25 31.25 0 0 1 940.5109999999999 640.3014208333332A31.25 31.25 0 0 1 939.3718333333333 645.2656124999999A31.25 31.25 0 0 1 936.2793333333332 649.6601458333332A31.25 31.25 0 0 1 933.7564166666666 653.2408541666666A31.25 31.25 0 0 1 922.0376666666666 661.7857749999998z" />
    <glyph glyph-name="arrow-turn-down-left"
      unicode="&#xE01D;"
      horiz-adv-x="1000" d="M843.3430833333333 843.8313791666667A31.25 31.25 0 0 1 812.0930833333333 812.5813791666667V375H231.28255L334.1471375 477.8645833333334A31.25 31.25 0 0 1 334.1471375 522.1354166666667A31.25 31.25 0 0 1 289.9576833333333 522.1354166666667L133.7076833333333 365.8854166666668A31.25 31.25 0 0 1 133.7076833333333 321.6145833333334L289.9576833333333 165.3645833333334A31.25 31.25 0 0 1 334.1471375 165.3645833333334A31.25 31.25 0 0 1 334.1471375 209.6354166666668L231.28255 312.5H843.3430833333333A31.253125 31.253125 0 0 1 874.5930833333333 343.75V812.5813791666667A31.25 31.25 0 0 1 843.3430833333333 843.8313791666667z" />
    <glyph glyph-name="arrow-turn-down-right"
      unicode="&#xE01E;"
      horiz-adv-x="1000" d="M155.8431 843.8313791666667A31.25 31.25 0 0 1 124.5931 812.5813791666667V343.75A31.253125 31.253125 0 0 1 155.8431 312.5H767.8222499999999L664.9576666666667 209.6354166666668A31.25 31.25 0 0 1 664.9576666666667 165.3645833333334A31.25 31.25 0 0 1 709.147125 165.3645833333334L865.397125 321.6145833333334A31.25 31.25 0 0 1 873.5351666666666 335.6933750000001A31.25 31.25 0 0 1 873.5351666666666 341.2272083333334A31.25 31.25 0 0 1 874.5930833333333 343.7501250000001A31.25 31.25 0 0 1 873.5351666666666 349.1212083333334A31.25 31.25 0 0 1 873.5351666666666 351.8066250000001A31.25 31.25 0 0 1 872.7214166666666 353.1899583333335A31.25 31.25 0 0 1 865.3972083333332 365.8852916666669L709.1472083333333 522.1352916666667A31.25 31.25 0 0 1 664.9577499999999 522.1352916666667A31.25 31.25 0 0 1 664.9577499999999 477.8644583333335L767.8222499999999 375H187.0931V812.5813791666667A31.25 31.25 0 0 1 155.8431 843.8313791666667z" />
    <glyph glyph-name="arrow-turn-left-down"
      unicode="&#xE01F;"
      horiz-adv-x="1000" d="M343.3431 875A31.253125 31.253125 0 0 1 312.0931 843.75V231.6894583333334L209.1471333333333 334.6354166666668A31.25 31.25 0 0 1 164.9576833333333 334.6354166666668A31.25 31.25 0 0 1 164.9576833333333 290.3645833333334L321.2076833333333 134.1145833333334A31.25 31.25 0 0 1 365.3971375 134.1145833333334L521.647125 290.3645833333334A31.25 31.25 0 0 1 521.647125 334.6354166666668A31.25 31.25 0 0 1 477.4576666666667 334.6354166666668L374.5931 231.7708333333334V812.5H812.0930833333333A31.25 31.25 0 0 1 843.3430833333333 843.75A31.25 31.25 0 0 1 812.0930833333333 875z" />
    <glyph glyph-name="arrow-turn-left-up"
      unicode="&#xE020;"
      horiz-adv-x="1000" d="M343.3431 875A31.25 31.25 0 0 1 321.2076833333333 865.8854166666667L164.9576833333333 709.6354166666667A31.25 31.25 0 0 1 164.9576833333333 665.3645833333334A31.25 31.25 0 0 1 209.1471333333333 665.3645833333334L312.0931 768.3105458333333V156.3313750000001A31.253125 31.253125 0 0 1 343.3431 125.0813750000001H812.0930833333333A31.25 31.25 0 0 1 843.3430833333333 156.3313750000001A31.25 31.25 0 0 1 812.0930833333333 187.5813750000001H374.5931V768.2291666666667L477.4576666666667 665.3645833333334A31.25 31.25 0 0 1 521.647125 665.3645833333334A31.25 31.25 0 0 1 521.647125 709.6354166666667L365.3971375 865.8854166666667A31.25 31.25 0 0 1 343.3431 875z" />
    <glyph glyph-name="arrow-turn-right-down"
      unicode="&#xE021;"
      horiz-adv-x="1000" d="M187.0931 875A31.25 31.25 0 0 1 155.8431 843.75A31.25 31.25 0 0 1 187.0931 812.5H624.5930833333333V231.6894583333334L521.647125 334.6354166666668A31.25 31.25 0 0 1 477.4576666666667 334.6354166666668A31.25 31.25 0 0 1 477.4576666666667 290.3645833333334L633.7076666666667 134.1145833333334A31.25 31.25 0 0 1 655.8430833333333 125A31.25 31.25 0 0 1 677.897125 134.1145833333334L834.147125 290.3645833333334A31.25 31.25 0 0 1 834.147125 334.6354166666668A31.25 31.25 0 0 1 789.9576666666667 334.6354166666668L687.0930833333333 231.7708333333334V843.75A31.253125 31.253125 0 0 1 655.8430833333333 875z" />
    <glyph glyph-name="arrow-turn-right-up"
      unicode="&#xE022;"
      horiz-adv-x="1000" d="M655.8430833333333 875A31.25 31.25 0 0 1 633.7076666666666 865.8854166666667L477.4576666666666 709.6354166666667A31.25 31.25 0 0 1 477.4576666666666 665.3645833333334A31.25 31.25 0 0 1 521.647125 665.3645833333334L624.5930833333333 768.3105458333333V187.5813750000001H187.0931A31.25 31.25 0 0 1 155.8431 156.3313750000001A31.25 31.25 0 0 1 187.0931 125.0813750000001H655.8430833333333A31.253125 31.253125 0 0 1 687.0930833333333 156.3313750000001V768.2291666666667L789.9576666666667 665.3645833333334A31.25 31.25 0 0 1 834.147125 665.3645833333334A31.25 31.25 0 0 1 834.147125 709.6354166666667L677.897125 865.8854166666667A31.25 31.25 0 0 1 655.8430833333333 875z" />
    <glyph glyph-name="arrow-turn-up-left"
      unicode="&#xE023;"
      horiz-adv-x="1000" d="M312.0931 843.8313791666667A31.25 31.25 0 0 1 289.9576833333333 834.7167958333333L133.7076833333333 678.4667958333333A31.25 31.25 0 0 1 124.5931 656.3313791666667A31.25 31.25 0 0 1 133.7076833333333 634.2773416666666A31.25 31.25 0 0 1 133.7076833333333 634.1960916666667A31.25 31.25 0 0 1 133.7889333333334 634.1960916666667A31.25 31.25 0 0 1 133.8701833333333 634.1148416666666L289.957425 477.9462166666666A31.25 31.25 0 0 1 334.1468791666667 477.8628833333332A31.25 31.25 0 0 1 334.1468791666667 522.0523416666665L231.2011708333333 625.0813791666667H812.0930833333333V187.5A31.25 31.25 0 0 1 843.3430833333333 156.25A31.25 31.25 0 0 1 874.5930833333333 187.5V656.3313791666667A31.253125 31.253125 0 0 1 843.3430833333333 687.5813791666667H231.28255L334.1471375 790.4459625A31.25 31.25 0 0 1 334.1471375 834.7167958333333A31.25 31.25 0 0 1 312.0931 843.8313791666667z" />
    <glyph glyph-name="arrow-turn-up-right"
      unicode="&#xE024;"
      horiz-adv-x="1000" d="M687.0930833333333 843.8313791666667A31.25 31.25 0 0 1 664.9576666666667 834.6354166666667A31.25 31.25 0 0 1 664.9576666666667 790.4459625L767.8222499999999 687.5813791666667H155.8431A31.253125 31.253125 0 0 1 124.5931 656.3313791666667V187.5A31.25 31.25 0 0 1 155.8431 156.25A31.25 31.25 0 0 1 187.0931 187.5V625.0813791666667H767.903625L664.9576666666667 522.0540416666668A31.25 31.25 0 0 1 664.9576666666667 477.8645833333334A31.25 31.25 0 0 1 709.147125 477.9479166666667L865.397125 634.1979208333333A31.25 31.25 0 0 1 872.7213333333333 646.7304750000001A31.25 31.25 0 0 1 873.5350833333333 650.9622458333333A31.25 31.25 0 0 1 874.5930000000001 656.3333375A31.25 31.25 0 0 1 873.5350833333333 661.62305A31.25 31.25 0 0 1 873.5350833333333 661.7043000000001A31.25 31.25 0 0 1 872.7213333333333 665.7733000000001A31.25 31.25 0 0 1 872.233 668.2960916666667A31.25 31.25 0 0 1 865.397125 678.3854166666667L709.147125 834.6354166666667A31.25 31.25 0 0 1 687.0930833333333 843.8313791666667z" />
    <glyph glyph-name="arrow-up-circle"
      unicode="&#xE025;"
      horiz-adv-x="1000" d="M500 906.25C276.004725 906.25 93.75 723.9954416666667 93.75 500C93.75 276.0045416666667 276.004725 93.75 500 93.75C723.9952916666666 93.75 906.25 276.0045416666667 906.25 500C906.25 723.9954416666667 723.9952916666666 906.25 500 906.25zM500 843.75C690.217875 843.75 843.75 690.2179874999999 843.75 500C843.75 309.782 690.2178749999999 156.25 500 156.25C309.7821375 156.25 156.25 309.782 156.25 500C156.25 690.2179874999999 309.7821375 843.75 500 843.75zM500 687.5A31.25 31.25 0 0 1 477.8645833333333 678.3854166666667L352.8645833333333 553.3854166666667A31.25 31.25 0 0 1 352.8645833333333 509.1145833333334A31.25 31.25 0 0 1 397.1354166666667 509.1145833333334L468.75 580.7291666666667V343.75A31.25 31.25 0 0 1 500 312.5A31.25 31.25 0 0 1 531.25 343.75V580.7291666666667L602.8645833333333 509.1145833333334A31.25 31.25 0 0 1 647.1354166666666 509.1145833333334A31.25 31.25 0 0 1 647.1354166666666 553.3854166666667L522.1354166666666 678.3854166666667A31.25 31.25 0 0 1 500 687.5z" />
    <glyph glyph-name="arrow-up-left"
      unicode="&#xE026;"
      horiz-adv-x="1000" d="M187.5 843.75A31.25 31.25 0 0 1 165.3645833333333 834.6354166666667A31.25 31.25 0 0 1 156.25 812.5V343.75A31.25 31.25 0 0 1 187.5 312.5A31.25 31.25 0 0 1 218.75 343.75V736.9791666666667L790.3645833333333 165.3645833333334A31.25 31.25 0 0 1 834.6354166666666 165.3645833333334A31.25 31.25 0 0 1 834.6354166666666 209.6354166666668L263.0208333333333 781.25H656.25A31.25 31.25 0 0 1 687.5 812.5A31.25 31.25 0 0 1 656.25 843.75z" />
    <glyph glyph-name="arrow-up-on-square-stack"
      unicode="&#xE027;"
      horiz-adv-x="1000" d="M437.5 968.75A31.25 31.25 0 0 1 415.3645833333333 959.6354166666666L290.3645833333333 834.6354166666667A31.25 31.25 0 0 1 290.3645833333333 790.3645833333334A31.25 31.25 0 0 1 334.6354166666667 790.3645833333334L406.25 861.9791666666667V468.75A31.25 31.25 0 0 1 437.5 437.5A31.25 31.25 0 0 1 468.75 468.75V861.9791666666667L540.3645833333333 790.3645833333334A31.25 31.25 0 0 1 584.6354166666666 790.3645833333334A31.25 31.25 0 0 1 584.6354166666666 834.6354166666667L459.6354166666666 959.6354166666666A31.25 31.25 0 0 1 437.5 968.75zM281.25 718.75C212.5846208333333 718.75 156.25 662.4153791666668 156.25 593.75V281.25C156.25 212.5846250000001 212.5846208333333 156.25 281.25 156.25C281.25 87.5846250000001 337.5846208333333 31.25 406.25 31.25H718.75C787.4153749999999 31.25 843.75 87.5846250000001 843.75 156.25V468.75C843.75 537.415375 787.4153749999999 593.75 718.75 593.75C718.75 662.4153791666668 662.4153749999999 718.75 593.75 718.75H562.5A31.25 31.25 0 0 1 531.25 687.5A31.25 31.25 0 0 1 562.5 656.25H593.75C628.6379166666667 656.25 656.25 628.6379083333334 656.25 593.75V562.5V281.25C656.25 246.3620833333335 628.6379166666667 218.75 593.75 218.75H312.5H281.25C246.3620916666667 218.75 218.75 246.3620833333335 218.75 281.25V593.75C218.75 628.6379083333334 246.3620916666667 656.25 281.25 656.25H312.5A31.25 31.25 0 0 1 343.75 687.5A31.25 31.25 0 0 1 312.5 718.75zM718.75 531.25C753.6379166666666 531.25 781.25 503.6379166666667 781.25 468.75V156.25C781.25 121.3620833333334 753.6379166666666 93.75 718.75 93.75H406.25C371.3620916666667 93.75 343.75 121.3620833333334 343.75 156.25H593.75C662.4153749999999 156.25 718.75 212.5846250000001 718.75 281.25z" />
    <glyph glyph-name="arrow-up-on-square"
      unicode="&#xE028;"
      horiz-adv-x="1000" d="M500 937.5A31.25 31.25 0 0 1 477.8645833333333 928.3854166666666L352.8645833333333 803.3854166666667A31.25 31.25 0 0 1 352.8645833333333 759.1145833333334A31.25 31.25 0 0 1 397.1354166666667 759.1145833333334L468.75 830.7291666666667V375A31.25 31.25 0 0 1 500 343.75A31.25 31.25 0 0 1 531.25 375V830.7291666666667L602.8645833333333 759.1145833333334A31.25 31.25 0 0 1 647.1354166666666 759.1145833333334A31.25 31.25 0 0 1 647.1354166666666 803.3854166666667L522.1354166666666 928.3854166666666A31.25 31.25 0 0 1 500 937.5zM312.5 687.5C243.8346208333333 687.5 187.5 631.1653791666668 187.5 562.5V187.5C187.5 118.8346250000001 243.8346208333333 62.5 312.5 62.5H687.5C756.1653749999999 62.5 812.5 118.8346250000001 812.5 187.5V562.5C812.5 631.1653791666668 756.1653749999999 687.5 687.5 687.5H625A31.25 31.25 0 0 1 593.75 656.25A31.25 31.25 0 0 1 625 625H687.5C722.3879166666666 625 750 597.3879083333334 750 562.5V187.5C750 152.6120833333334 722.3879166666666 125 687.5 125H312.5C277.6120916666667 125 250 152.6120833333334 250 187.5V562.5C250 597.3879083333334 277.6120916666667 625 312.5 625H375A31.25 31.25 0 0 1 406.25 656.25A31.25 31.25 0 0 1 375 687.5z" />
    <glyph glyph-name="arrow-up-right"
      unicode="&#xE029;"
      horiz-adv-x="1000" d="M343.75 843.75A31.25 31.25 0 0 1 312.5 812.5A31.25 31.25 0 0 1 343.75 781.25H736.9791666666666L165.3645833333333 209.6354166666668A31.25 31.25 0 0 1 165.3645833333333 165.3645833333334A31.25 31.25 0 0 1 209.6354166666667 165.3645833333334L781.25 736.9791666666667V343.75A31.25 31.25 0 0 1 812.5 312.5A31.25 31.25 0 0 1 843.75 343.75V812.5A31.25 31.25 0 0 1 834.6354166666666 834.6354166666667A31.25 31.25 0 0 1 824.4628749999999 841.389975A31.25 31.25 0 0 1 812.5 843.75z" />
    <glyph glyph-name="arrow-up-tray"
      unicode="&#xE02A;"
      horiz-adv-x="1000" d="M500 906.25A31.25 31.25 0 0 1 477.8645833333333 897.1354166666666L290.3645833333333 709.6354166666667A31.25 31.25 0 0 1 290.3645833333333 665.3645833333334A31.25 31.25 0 0 1 334.6354166666667 665.3645833333334L468.75 799.4791666666667V312.5A31.25 31.25 0 0 1 500 281.25A31.25 31.25 0 0 1 531.25 312.5V799.4791666666667L665.3645833333333 665.3645833333334A31.25 31.25 0 0 1 709.6354166666666 665.3645833333334A31.25 31.25 0 0 1 709.6354166666666 709.6354166666667L522.1354166666666 897.1354166666666A31.25 31.25 0 0 1 500 906.25zM125 343.75A31.25 31.25 0 0 1 93.75 312.5V218.75C93.75 150.0846250000001 150.0846208333333 93.75 218.75 93.75H781.25C849.9153749999999 93.75 906.25 150.0846250000001 906.25 218.75V312.5A31.25 31.25 0 0 1 875 343.75A31.25 31.25 0 0 1 843.75 312.5V218.75C843.75 183.8620833333334 816.1379166666666 156.25 781.25 156.25H218.75C183.8620916666667 156.25 156.25 183.8620833333334 156.25 218.75V312.5A31.25 31.25 0 0 1 125 343.75z" />
    <glyph glyph-name="arrow-up"
      unicode="&#xE02B;"
      horiz-adv-x="1000" d="M500 906.25A31.25 31.25 0 0 1 477.8645833333333 897.1354166666666L165.3645833333333 584.6354166666667A31.25 31.25 0 0 1 165.3645833333333 540.3645833333334A31.25 31.25 0 0 1 209.6354166666667 540.3645833333334L468.75 799.4791666666667V125A31.25 31.25 0 0 1 500 93.75A31.25 31.25 0 0 1 531.25 125V799.4791666666667L790.3645833333333 540.3645833333334A31.25 31.25 0 0 1 834.6354166666666 540.3645833333334A31.25 31.25 0 0 1 834.6354166666666 584.6354166666667L522.1354166666666 897.1354166666666A31.25 31.25 0 0 1 500 906.25z" />
    <glyph glyph-name="arrow-uturn-down"
      unicode="&#xE02C;"
      horiz-adv-x="1000" d="M625 906.25C470.04025 906.25 343.75 779.9598666666667 343.75 625V200.5208333333334L147.1354166666667 397.1354166666668A31.25 31.25 0 0 1 102.8645833333333 397.1354166666668A31.25 31.25 0 0 1 102.8645833333333 352.8645833333334L352.8645833333333 102.8645833333334A31.25 31.25 0 0 1 397.1354166666667 102.8645833333334L647.1354166666666 352.8645833333334A31.25 31.25 0 0 1 647.1354166666666 397.1354166666668A31.25 31.25 0 0 1 602.8645833333333 397.1354166666668L406.25 200.5208333333334V625C406.25 746.1824166666667 503.8176666666666 843.75 625 843.75C746.1823333333333 843.75 843.75 746.1824166666667 843.75 625V500A31.25 31.25 0 0 1 875 468.75A31.25 31.25 0 0 1 906.25 500V625C906.25 779.9598666666667 779.95975 906.25 625 906.25z" />
    <glyph glyph-name="arrow-uturn-left"
      unicode="&#xE02D;"
      horiz-adv-x="1000" d="M375 906.25A31.25 31.25 0 0 1 352.8645833333333 897.1354166666666L102.8645833333333 647.1354166666667A31.25 31.25 0 0 1 93.75 625A31.25 31.25 0 0 1 102.8645833333333 602.8645833333334L352.8645833333333 352.8645833333334A31.25 31.25 0 0 1 397.1354166666667 352.8645833333334A31.25 31.25 0 0 1 397.1354166666667 397.1354166666668L200.5208333333333 593.75H625C746.1824166666665 593.75 843.75 496.1823333333334 843.75 375C843.75 253.8176666666667 746.1824166666665 156.25 625 156.25H500A31.25 31.25 0 0 1 468.75 125A31.25 31.25 0 0 1 500 93.75H625C779.959875 93.75 906.25 220.04025 906.25 375C906.25 529.95975 779.959875 656.25 625 656.25H200.5208333333333L397.1354166666667 852.8645833333334A31.25 31.25 0 0 1 397.1354166666667 897.1354166666666A31.25 31.25 0 0 1 375 906.25z" />
    <glyph glyph-name="arrow-uturn-right"
      unicode="&#xE02E;"
      horiz-adv-x="1000" d="M625 906.25A31.25 31.25 0 0 1 602.8645833333333 897.1354166666666A31.25 31.25 0 0 1 602.8645833333333 852.8645833333334L799.4791666666666 656.25H375C220.0401333333333 656.25 93.75 529.95975 93.75 375C93.75 220.04025 220.0401333333333 93.75 375 93.75H500A31.25 31.25 0 0 1 531.25 125A31.25 31.25 0 0 1 500 156.25H375C253.8175833333333 156.25 156.25 253.8176666666667 156.25 375C156.25 496.1823333333334 253.8175833333333 593.75 375 593.75H799.4791666666666L602.8645833333333 397.1354166666668A31.25 31.25 0 0 1 602.8645833333333 352.8645833333334A31.25 31.25 0 0 1 647.1354166666666 352.8645833333334L897.1354166666666 602.8645833333334A31.25 31.25 0 0 1 905.1920416666666 622.3958333333334A31.25 31.25 0 0 1 906.25 625A31.25 31.25 0 0 1 905.1920833333332 630.3710916666666A31.25 31.25 0 0 1 905.1920833333332 633.0566333333334A31.25 31.25 0 0 1 904.3783333333332 634.4400916666667A31.25 31.25 0 0 1 897.1354166666666 647.1354166666667L647.1354166666666 897.1354166666666A31.25 31.25 0 0 1 625 906.25z" />
    <glyph glyph-name="arrow-uturn-up"
      unicode="&#xE02F;"
      horiz-adv-x="1000" d="M625 906.25A31.25 31.25 0 0 1 602.8645833333333 897.1354166666666L352.8645833333333 647.1354166666667A31.25 31.25 0 0 1 352.8645833333333 602.8645833333334A31.25 31.25 0 0 1 397.1354166666667 602.8645833333334L593.75 799.4791666666667V375C593.75 253.8175833333335 496.1823333333333 156.25 375 156.25C253.8176583333333 156.25 156.25 253.8175833333335 156.25 375V500A31.25 31.25 0 0 1 125 531.25A31.25 31.25 0 0 1 93.75 500V375C93.75 220.040125 220.0402458333333 93.75 375 93.75C529.95975 93.75 656.25 220.040125 656.25 375V799.4791666666667L852.8645833333333 602.8645833333334A31.25 31.25 0 0 1 897.1354166666666 602.8645833333334A31.25 31.25 0 0 1 897.1354166666666 647.1354166666667L647.1354166666666 897.1354166666666A31.25 31.25 0 0 1 625 906.25z" />
    <glyph glyph-name="arrow"
      unicode="&#xE030;"
      horiz-adv-x="1000" d="M496.9889166666666 874.4303375C338.3265958333333 872.1379833333333 184.1995791666667 770.402425 137.7766916666667 597.0052083333334A31.25 31.25 0 0 1 159.9121083333333 558.7565000000001A31.25 31.25 0 0 1 198.1608083333333 580.8919166666667C260.7712083333334 814.7522041666667 549.7602916666667 892.2177375 720.94725 721.0286458333334L800.2115833333334 641.7643208333334H667.6432083333333A31.25 31.25 0 0 1 636.39325 610.5143208333334A31.25 31.25 0 0 1 667.6432083333333 579.2643333333333H875.6510416666666A31.25 31.25 0 0 1 897.7050833333333 588.4602874999999A31.25 31.25 0 0 1 905.8430833333334 608.0729166666666A31.25 31.25 0 0 1 906.81975 610.4329583333333A31.25 31.25 0 0 1 906.9030833333333 610.5142083333333A31.25 31.25 0 0 1 906.9030833333333 610.5954583333335V818.5221375A31.25 31.25 0 0 1 875.6530833333333 849.7721333333334A31.25 31.25 0 0 1 844.4030833333333 818.5221375V685.953775L765.2180833333333 765.2181C689.0614583333333 841.3756541666667 592.1863333333333 875.80575 496.9889166666666 874.4303375zM840.0878749999999 441.2435000000001A31.25 31.25 0 0 1 801.8392083333334 419.1080833333333C739.2287916666668 185.2477916666667 450.1583333333334 107.78225 278.9713541666668 278.971375L199.7884125 358.2356666666667H332.3567708333333A31.25 31.25 0 0 1 363.6067708333333 389.4856666666667A31.25 31.25 0 0 1 332.3567708333333 420.7356666666667H124.3489583333333A31.25 31.25 0 0 1 102.2949208333333 411.6210833333335A31.25 31.25 0 0 1 102.2136708333333 411.6210833333335A31.25 31.25 0 0 1 102.2136708333333 411.4585833333334A31.25 31.25 0 0 1 93.0990875 389.4859166666668V181.4781250000001A31.25 31.25 0 0 1 124.3490875 150.2281250000001A31.25 31.25 0 0 1 155.5990875 181.4781250000001V314.0464583333334L234.7820291666667 234.7821666666668C437.8663375 31.6953333333335 787.9468375000001 125.5595000000001 862.2234208333333 402.9950416666668A31.25 31.25 0 0 1 840.0880041666667 441.2437500000001z" />
    <glyph glyph-name="arrows-pointing-in"
      unicode="&#xE031;"
      horiz-adv-x="1000" d="M156.25 875A31.25 31.25 0 0 1 134.1145833333333 865.8854166666667A31.25 31.25 0 0 1 134.1145833333333 821.6145833333334L299.4791666666667 656.25H187.5A31.25 31.25 0 0 1 156.25 625A31.25 31.25 0 0 1 187.5 593.75H375A31.25 31.25 0 0 1 397.1354166666667 602.8645833333334A31.25 31.25 0 0 1 405.1920583333333 622.3958333333334A31.25 31.25 0 0 1 406.25 625V812.5A31.25 31.25 0 0 1 375 843.75A31.25 31.25 0 0 1 343.75 812.5V700.5208333333334L178.3854166666667 865.8854166666667A31.25 31.25 0 0 1 156.25 875zM843.75 875A31.25 31.25 0 0 1 821.6145833333333 865.8854166666667L656.25 700.5208333333334V812.5A31.25 31.25 0 0 1 625 843.75A31.25 31.25 0 0 1 593.75 812.5V625A31.25 31.25 0 0 1 625 593.75H812.5A31.25 31.25 0 0 1 843.75 625A31.25 31.25 0 0 1 812.5 656.25H700.5208333333333L865.8854166666666 821.6145833333334A31.25 31.25 0 0 1 865.8854166666666 865.8854166666667A31.25 31.25 0 0 1 843.75 875zM187.5 406.25A31.25 31.25 0 0 1 156.25 375A31.25 31.25 0 0 1 187.5 343.75H299.4791666666667L134.1145833333333 178.3854166666668A31.25 31.25 0 0 1 134.1145833333333 134.1145833333334A31.25 31.25 0 0 1 178.3854166666667 134.1145833333334L343.75 299.4791666666668V187.5A31.25 31.25 0 0 1 375 156.25A31.25 31.25 0 0 1 406.25 187.5V375A31.25 31.25 0 0 1 405.1920583333333 380.3710833333335A31.25 31.25 0 0 1 404.3782541666667 384.4400833333333A31.25 31.25 0 0 1 403.889975 386.9628750000001A31.25 31.25 0 0 1 397.1354166666667 397.1354166666668A31.25 31.25 0 0 1 386.9628916666667 403.8899583333333A31.25 31.25 0 0 1 375 406.25zM625 406.25A31.25 31.25 0 0 1 602.8645833333333 397.1354166666668A31.25 31.25 0 0 1 593.75 375V187.5A31.25 31.25 0 0 1 625 156.25A31.25 31.25 0 0 1 656.25 187.5V299.4791666666668L821.6145833333333 134.1145833333334A31.25 31.25 0 0 1 865.8854166666666 134.1145833333334A31.25 31.25 0 0 1 865.8854166666666 178.3854166666668L700.5208333333333 343.75H812.5A31.25 31.25 0 0 1 843.75 375A31.25 31.25 0 0 1 812.5 406.25z" />
    <glyph glyph-name="arrows-pointing-out"
      unicode="&#xE032;"
      horiz-adv-x="1000" d="M156.25 875A31.25 31.25 0 0 1 134.1145833333333 865.8854166666667A31.25 31.25 0 0 1 125 843.75V656.25A31.25 31.25 0 0 1 156.25 625A31.25 31.25 0 0 1 187.5 656.25V768.2291666666667L352.8645833333333 602.8645833333334A31.25 31.25 0 0 1 397.1354166666667 602.8645833333334A31.25 31.25 0 0 1 397.1354166666667 647.1354166666667L231.7708333333333 812.5H343.75A31.25 31.25 0 0 1 375 843.75A31.25 31.25 0 0 1 343.75 875zM656.25 875A31.25 31.25 0 0 1 625 843.75A31.25 31.25 0 0 1 656.25 812.5H768.2291666666666L602.8645833333333 647.1354166666667A31.25 31.25 0 0 1 602.8645833333333 602.8645833333334A31.25 31.25 0 0 1 647.1354166666666 602.8645833333334L812.5 768.2291666666667V656.25A31.25 31.25 0 0 1 843.75 625A31.25 31.25 0 0 1 875 656.25V843.75A31.25 31.25 0 0 1 865.8854166666666 865.8854166666667A31.25 31.25 0 0 1 855.7128749999999 872.639975A31.25 31.25 0 0 1 843.75 875zM375 406.25A31.25 31.25 0 0 1 352.8645833333333 397.1354166666668L187.5 231.7708333333334V343.75A31.25 31.25 0 0 1 156.25 375A31.25 31.25 0 0 1 125 343.75V156.25A31.25 31.25 0 0 1 134.1145833333333 134.1145833333334A31.25 31.25 0 0 1 156.25 125H343.75A31.25 31.25 0 0 1 375 156.25A31.25 31.25 0 0 1 343.75 187.5H231.7708333333333L397.1354166666667 352.8645833333334A31.25 31.25 0 0 1 397.1354166666667 397.1354166666668A31.25 31.25 0 0 1 375 406.25zM625 406.25A31.25 31.25 0 0 1 602.8645833333333 397.1354166666668A31.25 31.25 0 0 1 602.8645833333333 352.8645833333334L768.2291666666666 187.5H656.25A31.25 31.25 0 0 1 625 156.25A31.25 31.25 0 0 1 656.25 125H843.75A31.25 31.25 0 0 1 865.8854166666666 134.1145833333334A31.25 31.25 0 0 1 873.9420416666667 153.6458333333334A31.25 31.25 0 0 1 875 156.25V343.75A31.25 31.25 0 0 1 843.75 375A31.25 31.25 0 0 1 812.5 343.75V231.7708333333334L647.1354166666666 397.1354166666668A31.25 31.25 0 0 1 625 406.25z" />
    <glyph glyph-name="arrows-right-left"
      unicode="&#xE033;"
      horiz-adv-x="1000" d="M687.5 906.25A31.25 31.25 0 0 1 665.3645833333333 897.1354166666666A31.25 31.25 0 0 1 665.3645833333333 852.8645833333334L799.4791666666666 718.75H312.5A31.25 31.25 0 0 1 281.25 687.5A31.25 31.25 0 0 1 312.5 656.25H799.4791666666666L665.3645833333333 522.1354166666667A31.25 31.25 0 0 1 665.3645833333333 477.8645833333334A31.25 31.25 0 0 1 709.6354166666666 477.8645833333334L897.1354166666666 665.3645833333334A31.25 31.25 0 0 1 905.1920416666666 679.4433583333333A31.25 31.25 0 0 1 905.1920416666666 684.8958333333334A31.25 31.25 0 0 1 906.25 687.5A31.25 31.25 0 0 1 905.1920416666666 692.8710958333334A31.25 31.25 0 0 1 904.37825 696.9401041666667A31.25 31.25 0 0 1 897.1354166666666 709.6354166666667L709.6354166666666 897.1354166666666A31.25 31.25 0 0 1 687.5 906.25zM312.5 531.25A31.25 31.25 0 0 1 290.3645833333333 522.1354166666667L102.8645833333333 334.6354166666668A31.25 31.25 0 0 1 93.75 312.5A31.25 31.25 0 0 1 102.8645833333333 290.3645833333334L290.3645833333333 102.8645833333334A31.25 31.25 0 0 1 334.6354166666667 102.8645833333334A31.25 31.25 0 0 1 334.6354166666667 147.1354166666668L200.5208333333333 281.25H687.5A31.25 31.25 0 0 1 718.75 312.5A31.25 31.25 0 0 1 687.5 343.75H200.5208333333333L334.6354166666667 477.8645833333334A31.25 31.25 0 0 1 334.6354166666667 522.1354166666667A31.25 31.25 0 0 1 312.5 531.25z" />
    <glyph glyph-name="arrows-up-down"
      unicode="&#xE034;"
      horiz-adv-x="1000" d="M312.5 906.25A31.25 31.25 0 0 1 290.3645833333333 897.1354166666666L102.8645833333333 709.6354166666667A31.25 31.25 0 0 1 102.8645833333333 665.3645833333334A31.25 31.25 0 0 1 147.1354166666667 665.3645833333334L281.25 799.4791666666667V312.5A31.25 31.25 0 0 1 312.5 281.25A31.25 31.25 0 0 1 343.75 312.5V799.4791666666667L477.8645833333333 665.3645833333334A31.25 31.25 0 0 1 522.1354166666666 665.3645833333334A31.25 31.25 0 0 1 522.1354166666666 709.6354166666667L334.6354166666667 897.1354166666666A31.25 31.25 0 0 1 312.5 906.25zM687.5 718.75A31.25 31.25 0 0 1 656.25 687.5V200.5208333333334L522.1354166666666 334.6354166666668A31.25 31.25 0 0 1 477.8645833333333 334.6354166666668A31.25 31.25 0 0 1 477.8645833333333 290.3645833333334L665.3645833333333 102.8645833333334A31.25 31.25 0 0 1 687.5 93.75A31.25 31.25 0 0 1 709.6354166666666 102.8645833333334L897.1354166666666 290.3645833333334A31.25 31.25 0 0 1 897.1354166666666 334.6354166666668A31.25 31.25 0 0 1 852.8645833333333 334.6354166666668L718.75 200.5208333333334V687.5A31.25 31.25 0 0 1 687.5 718.75z" />
    <glyph glyph-name="at-symbol"
      unicode="&#xE035;"
      horiz-adv-x="1000" d="M446.940125 903.4830708333334C314.4280041666667 887.4737583333333 187.7194625 807.4469625 124.7558583333333 655.4361958333334C40.8043866666667 452.7551666666667 127.4941916666667 260.3898750000001 274.3326833333333 162.1907500000001C421.1711666666667 63.9916250000001 631.9810833333332 57.4348750000002 787.272125 212.7278750000001A31.25 31.25 0 0 1 787.272125 256.9173333333333A31.25 31.25 0 0 1 743.0826666666667 256.9173333333333C608.0415416666666 121.8745416666667 434.6527916666666 130.2165 309.0820291666667 214.1927083333334C183.5112708333333 298.1689166666668 109.5528208333333 455.3102083333334 182.5358083333333 631.5104166666667C255.5187958333333 807.7106208333333 418.8847916666667 866.5678041666666 567.0572916666666 837.1582041666667C715.2297916666666 807.7486041666667 843.7483333333333 690.9781625 843.75 500C843.75 471.8096666666667 834.8945833333332 446.8528750000001 822.5097499999999 430.3385416666668C810.1249583333333 413.8242083333335 795.8911249999999 406.25 781.25 406.25C766.608875 406.25 752.3750416666666 413.8242083333335 739.99025 430.3385416666668C727.6054166666667 446.8528750000001 718.75 471.8096666666667 718.75 500V656.25A31.25 31.25 0 0 1 687.5 687.5A31.25 31.25 0 0 1 656.25 656.25V654.8665416666666C653.645125 657.4615875 652.3884999999999 661.5541958333333 649.6582083333333 663.9811208333333C608.0587916666666 700.9583416666667 553.8193749999999 718.75 500 718.75C446.180625 718.75 391.9411916666666 700.9583416666667 350.3417958333333 663.9811208333333C308.7424041666667 627.0038958333334 281.25 570.3124166666666 281.25 500C281.25 429.6875833333334 308.7424041666667 372.9960833333335 350.3417958333333 336.0188750000001C391.9411916666666 299.0416666666668 446.180625 281.25 500 281.25C553.8193749999999 281.25 608.0587916666666 299.0416666666668 649.6582083333333 336.0188750000001C666.5381666666666 351.0232916666668 679.01 371.3260000000002 690.3482916666667 392.4153750000001C711.892875 363.9351250000001 744.3000416666666 343.75 781.25 343.75C818.4004999999999 343.75 851.0163749999999 364.0970833333334 872.5585833333333 392.8222500000001C894.1008333333333 421.5474583333334 906.25 459.1487500000001 906.25 500C906.2480833333332 719.6160791666666 752.5325833333333 864.0468416666666 579.2643333333333 898.4375C535.9472499999999 907.0351625 491.1107916666667 908.8195125 446.940125 903.4830708333334zM500 656.25C539.9304999999999 656.25 579.44125 642.7915666666668 608.1542916666666 617.2688791666667C636.8673333333332 591.7461916666666 656.25 554.6874166666666 656.25 500C656.25 445.3125833333334 636.8673333333332 408.2537916666667 608.1542916666666 382.731125C579.44125 357.2084166666667 539.9304999999999 343.75 500 343.75C460.0694999999999 343.75 420.55875 357.2084166666667 391.8457041666667 382.731125C363.1326666666667 408.2537916666667 343.75 445.3125833333334 343.75 500C343.75 554.6874166666666 363.1326666666667 591.7461916666666 391.8457041666667 617.2688791666667C420.55875 642.7915666666668 460.0694999999999 656.25 500 656.25z" />
    <glyph glyph-name="backspace"
      unicode="&#xE036;"
      horiz-adv-x="1000" d="M425.6185 843.75C404.8824916666667 843.75 385.009525 835.5187291666666 370.3613291666667 820.8007833333334L104.8177083333333 555.2571666666668A31.253125 31.253125 0 0 1 104.8177083333333 555.1738333333333C74.6144 524.9329166666666 74.6144 475.0631666666667 104.8177083333333 444.82225A31.253125 31.253125 0 0 1 104.8177083333333 444.7389166666666L370.3613291666667 179.1952916666666V179.1119583333333A31.253125 31.253125 0 0 1 392.4967458333333 169.9973749999999C403.3783541666667 164.4536250000001 413.2604291666667 156.25 425.699875 156.25H812.5C881.1653749999999 156.25 937.5 212.5846250000001 937.5 281.25V718.75C937.5 787.4153791666666 881.1653749999999 843.75 812.5 843.75zM425.6185 781.25H812.5C847.3879166666666 781.25 875 753.6379083333334 875 718.75V281.25C875 246.3620833333335 847.3879166666666 218.75 812.5 218.75H425.699875C421.602375 218.75 417.5653333333334 220.4420833333335 414.7135416666667 223.3072916666668A31.253125 31.253125 0 0 1 414.6322916666666 223.3072916666668L414.5510416666666 223.390625L149.0074208333333 488.93425C142.6540916666666 495.2955 142.6540916666666 504.7084166666666 149.0074208333333 511.0696666666666L414.6324208333333 776.6946666666666C417.4839583333333 779.558075 421.5211666666666 781.25 425.6185 781.25zM500 625A31.25 31.25 0 0 1 477.8645833333333 615.8854166666667A31.25 31.25 0 0 1 477.8645833333333 571.6145833333334L549.4791666666666 500L477.8645833333333 428.3854166666668A31.25 31.25 0 0 1 477.8645833333333 384.1145833333334A31.25 31.25 0 0 1 522.1354166666666 384.1145833333334L593.75 455.7291666666667L665.3645833333333 384.1145833333334A31.25 31.25 0 0 1 709.6354166666666 384.1145833333334A31.25 31.25 0 0 1 709.6354166666666 428.3854166666668L638.0208333333333 500L709.6354166666666 571.6145833333334A31.25 31.25 0 0 1 709.6354166666666 615.8854166666667A31.25 31.25 0 0 1 665.3645833333333 615.8854166666667L593.75 544.2708333333334L522.1354166666666 615.8854166666667A31.25 31.25 0 0 1 500 625z" />
    <glyph glyph-name="backward"
      unicode="&#xE037;"
      horiz-adv-x="1000" d="M422.8515833333334 715.6575541666666C409.5130125 716.0881125000001 395.8365375 713.0641458333333 383.1380208333333 705.8105458333333L86.9954416666667 536.6210833333334C35.8085329166667 507.3990000000001 35.8085329166667 430.1010000000001 86.9954416666667 400.8789166666668L383.1380208333333 231.6894583333334C433.9305833333334 202.6361250000001 500 241.0635 500 299.5605416666667V397.0540416666667L789.388 231.6894583333334C840.1805833333333 202.6361250000001 906.25 241.0635 906.25 299.5605416666667V637.9394541666667C906.257125 696.4362333333333 840.1820833333334 734.82495 789.388 705.8105458333333L500 540.4459583333334V637.9394541666667C500.0053333333333 681.8120375000001 462.8672083333333 714.365875 422.8515833333334 715.6575541666666zM414.1438791666667 651.5299458333334C425.8531666666667 658.218475 437.501625 651.4243916666667 437.5 637.9394541666667V299.5605416666667C437.5 286.0576666666667 425.8512916666666 279.2734166666668 414.1438791666667 285.9700416666667L118.0013041666667 455.1595000000001A31.253125 31.253125 0 0 1 117.9200541666667 455.1595000000001C106.0803416666667 461.9186666666667 106.0803416666667 475.5813333333334 117.9200541666667 482.3405A31.253125 31.253125 0 0 1 118.0013041666667 482.3405zM820.393875 651.5299458333334C832.1031666666667 658.218475 843.751625 651.4245291666666 843.75 637.9394541666666V299.5605416666667C843.75 286.0576666666667 832.1012916666667 279.2734166666668 820.393875 285.9700416666667L524.2512916666667 455.1595000000001A31.253125 31.253125 0 0 1 524.1679583333333 455.1595000000001C512.32825 461.9186666666667 512.32825 475.5813333333334 524.1679583333333 482.3405A31.253125 31.253125 0 0 1 524.2512916666667 482.3405z" />
    <glyph glyph-name="banknotes"
      unicode="&#xE038;"
      horiz-adv-x="1000" d="M140.625 843.75C97.8418291666667 843.75 62.5 808.4081708333333 62.5 765.625V750V375V359.375C62.5 316.5979583333334 97.8479416666667 281.25 140.625 281.25H156.25H843.75H859.375C902.1581666666666 281.25 937.5 316.5918333333333 937.5 359.375V375V750V765.625C937.5 808.4081708333333 902.1581666666666 843.75 859.375 843.75H843.75H156.25zM187.5 781.25H812.5C812.5 747.0918208333334 840.8418333333333 718.75 875 718.75V406.25C840.8523749999999 406.25 812.5 377.8976250000001 812.5 343.75H187.5C187.5 377.8976250000001 159.1476166666666 406.25 125 406.25V718.75C159.1476166666666 718.75 187.5 747.1023833333334 187.5 781.25zM500 718.75C461.8055833333333 718.75 423.1912083333334 706.1666916666667 393.3105458333333 679.6061208333333C363.4298916666666 653.04555 343.75 611.9791041666667 343.75 562.5C343.75 513.0209166666667 363.4298916666666 471.9544583333334 393.3105458333333 445.3938750000001C423.1912083333334 418.8332916666667 461.8055833333333 406.25 500 406.25C538.1944166666666 406.25 576.8087916666666 418.8332916666667 606.6894583333333 445.3938750000001C636.570125 471.9544583333334 656.25 513.0209166666667 656.25 562.5C656.25 611.9791041666667 636.570125 653.04555 606.6894583333333 679.6061208333333C576.8087916666666 706.1666916666667 538.1944166666666 718.75 500 718.75zM500 656.25C524.3055416666666 656.25 548.19125 647.9999166666666 565.1855416666666 632.8938791666667C582.1798333333332 617.7878458333333 593.75 596.3541125 593.75 562.5C593.75 528.6458749999999 582.1798333333332 507.2121666666667 565.1855416666666 492.106125C548.19125 477.0000833333334 524.3055416666666 468.75 500 468.75C475.6944583333333 468.75 451.80875 477.0000833333334 434.8144583333333 492.106125C417.8201666666667 507.2121666666667 406.25 528.6458749999999 406.25 562.5C406.25 596.3541125 417.8201666666667 617.7878458333333 434.8144583333333 632.8938791666667C451.80875 647.9999166666666 475.6944583333333 656.25 500 656.25zM250 593.75A31.253125 31.253125 0 0 1 218.75 562.5V562.1750000000001A31.253125 31.253125 0 0 1 250 530.9250000000001H250.3254166666667A31.253125 31.253125 0 0 1 281.5754166666667 562.1750000000001V562.5A31.253125 31.253125 0 0 1 250.3254166666667 593.75zM750 593.75A31.253125 31.253125 0 0 1 718.75 562.5V562.1750000000001A31.253125 31.253125 0 0 1 750 530.9250000000001H750.3249999999999A31.253125 31.253125 0 0 1 781.5749999999999 562.1750000000001V562.5A31.253125 31.253125 0 0 1 750.3249999999999 593.75zM250.1627583333334 593.2617166666666L281.0872375 562.33725L250.1627583333334 531.4127500000001L219.2382791666667 562.33725zM750.16275 593.2617166666666L781.0872499999999 562.33725L750.16275 531.41275L719.2382916666666 562.33725zM93.75 250A31.25 31.25 0 0 1 62.5 218.75A31.25 31.25 0 0 1 93.75 187.5C313.2910708333333 187.6791666666668 531.8712916666666 158.629625 743.7337083333333 101.0742083333335C793.0145833333333 87.6524583333334 843.75 125.362875 843.75 176.8392083333333V218.75A31.25 31.25 0 0 1 812.5 250A31.25 31.25 0 0 1 781.25 218.75V176.8392083333333C781.25 165.4822083333334 771.4749583333332 158.2987083333334 760.1725416666666 161.3769583333334C542.9529166666666 220.3877083333333 318.8424041666667 250.1832916666667 93.75 250z" />
    <glyph glyph-name="bars-2"
      unicode="&#xE039;"
      horiz-adv-x="1000" d="M156.25 656.25A31.25 31.25 0 0 1 125 625A31.25 31.25 0 0 1 156.25 593.75H843.75A31.25 31.25 0 0 1 875 625A31.25 31.25 0 0 1 843.75 656.25zM156.25 375A31.25 31.25 0 0 1 125 343.75A31.25 31.25 0 0 1 156.25 312.5H843.75A31.25 31.25 0 0 1 875 343.75A31.25 31.25 0 0 1 843.75 375z" />
    <glyph glyph-name="bars-3-bottom-left"
      unicode="&#xE03A;"
      horiz-adv-x="1000" d="M156.25 750A31.25 31.25 0 0 1 125 718.75A31.25 31.25 0 0 1 156.25 687.5H843.75A31.25 31.25 0 0 1 875 718.75A31.25 31.25 0 0 1 843.75 750zM156.25 531.25A31.25 31.25 0 0 1 125 500A31.25 31.25 0 0 1 156.25 468.75H843.75A31.25 31.25 0 0 1 875 500A31.25 31.25 0 0 1 843.75 531.25zM156.25 312.5A31.25 31.25 0 0 1 125 281.25A31.25 31.25 0 0 1 156.25 250H500A31.25 31.25 0 0 1 531.25 281.25A31.25 31.25 0 0 1 500 312.5z" />
    <glyph glyph-name="bars-3-bottom-right"
      unicode="&#xE03B;"
      horiz-adv-x="1000" d="M156.25 750A31.25 31.25 0 0 1 125 718.75A31.25 31.25 0 0 1 156.25 687.5H843.75A31.25 31.25 0 0 1 875 718.75A31.25 31.25 0 0 1 843.75 750zM156.25 531.25A31.25 31.25 0 0 1 125 500A31.25 31.25 0 0 1 156.25 468.75H843.75A31.25 31.25 0 0 1 875 500A31.25 31.25 0 0 1 843.75 531.25zM500 312.5A31.25 31.25 0 0 1 468.75 281.25A31.25 31.25 0 0 1 500 250H843.75A31.25 31.25 0 0 1 875 281.25A31.25 31.25 0 0 1 843.75 312.5z" />
    <glyph glyph-name="bars-3-center-left"
      unicode="&#xE03C;"
      horiz-adv-x="1000" d="M156.25 750A31.25 31.25 0 0 1 125 718.75A31.25 31.25 0 0 1 156.25 687.5H843.75A31.25 31.25 0 0 1 875 718.75A31.25 31.25 0 0 1 843.75 750zM156.25 531.25A31.25 31.25 0 0 1 125 500A31.25 31.25 0 0 1 156.25 468.75H500A31.25 31.25 0 0 1 531.25 500A31.25 31.25 0 0 1 500 531.25zM156.25 312.5A31.25 31.25 0 0 1 125 281.25A31.25 31.25 0 0 1 156.25 250H843.75A31.25 31.25 0 0 1 875 281.25A31.25 31.25 0 0 1 843.75 312.5z" />
    <glyph glyph-name="bars-3"
      unicode="&#xE03D;"
      horiz-adv-x="1000" d="M156.25 750A31.25 31.25 0 0 1 125 718.75A31.25 31.25 0 0 1 156.25 687.5H843.75A31.25 31.25 0 0 1 875 718.75A31.25 31.25 0 0 1 843.75 750zM156.25 531.25A31.25 31.25 0 0 1 125 500A31.25 31.25 0 0 1 156.25 468.75H843.75A31.25 31.25 0 0 1 875 500A31.25 31.25 0 0 1 843.75 531.25zM156.25 312.5A31.25 31.25 0 0 1 125 281.25A31.25 31.25 0 0 1 156.25 250H843.75A31.25 31.25 0 0 1 875 281.25A31.25 31.25 0 0 1 843.75 312.5z" />
    <glyph glyph-name="bars-4"
      unicode="&#xE03E;"
      horiz-adv-x="1000" d="M156.25 812.5A31.25 31.25 0 0 1 125 781.25A31.25 31.25 0 0 1 156.25 750H843.75A31.25 31.25 0 0 1 875 781.25A31.25 31.25 0 0 1 843.75 812.5zM156.25 625A31.25 31.25 0 0 1 125 593.75A31.25 31.25 0 0 1 156.25 562.5H843.75A31.25 31.25 0 0 1 875 593.75A31.25 31.25 0 0 1 843.75 625zM156.25 437.5A31.25 31.25 0 0 1 125 406.25A31.25 31.25 0 0 1 156.25 375H843.75A31.25 31.25 0 0 1 875 406.25A31.25 31.25 0 0 1 843.75 437.5zM156.25 250A31.25 31.25 0 0 1 125 218.75A31.25 31.25 0 0 1 156.25 187.5H843.75A31.25 31.25 0 0 1 875 218.75A31.25 31.25 0 0 1 843.75 250z" />
    <glyph glyph-name="bars-arrow-down"
      unicode="&#xE03F;"
      horiz-adv-x="1000" d="M125 843.75A31.25 31.25 0 0 1 93.75 812.5A31.25 31.25 0 0 1 125 781.25H718.75A31.25 31.25 0 0 1 750 812.5A31.25 31.25 0 0 1 718.75 843.75zM125 656.25A31.25 31.25 0 0 1 93.75 625A31.25 31.25 0 0 1 125 593.75H531.25A31.25 31.25 0 0 1 562.5 625A31.25 31.25 0 0 1 531.25 656.25zM718.75 656.25A31.25 31.25 0 0 1 687.5 625V200.5208333333334L584.6354166666666 303.3854166666668A31.25 31.25 0 0 1 540.3645833333333 303.3854166666668A31.25 31.25 0 0 1 540.3645833333333 259.1145833333334L696.6145833333333 102.8645833333334A31.25 31.25 0 0 1 718.75 93.75A31.25 31.25 0 0 1 740.8854166666666 102.8645833333334L897.1354166666666 259.1145833333334A31.25 31.25 0 0 1 897.1354166666666 303.3854166666668A31.25 31.25 0 0 1 852.8645833333333 303.3854166666668L750 200.5208333333334V625A31.25 31.25 0 0 1 718.75 656.25zM125 468.75A31.25 31.25 0 0 1 93.75 437.5A31.25 31.25 0 0 1 125 406.25H531.25A31.25 31.25 0 0 1 562.5 437.5A31.25 31.25 0 0 1 531.25 468.75z" />
    <glyph glyph-name="bars-arrow-up"
      unicode="&#xE040;"
      horiz-adv-x="1000" d="M125 843.75A31.25 31.25 0 0 1 93.75 812.5A31.25 31.25 0 0 1 125 781.25H718.75A31.25 31.25 0 0 1 750 812.5A31.25 31.25 0 0 1 718.75 843.75zM125 656.25A31.25 31.25 0 0 1 93.75 625A31.25 31.25 0 0 1 125 593.75H531.25A31.25 31.25 0 0 1 562.5 625A31.25 31.25 0 0 1 531.25 656.25zM718.75 656.25A31.25 31.25 0 0 1 696.6145833333333 647.1354166666667L540.3645833333333 490.8854166666667A31.25 31.25 0 0 1 540.3645833333333 446.6145833333334A31.25 31.25 0 0 1 584.6354166666666 446.6145833333334L687.5 549.4791666666667V125A31.25 31.25 0 0 1 718.75 93.75A31.25 31.25 0 0 1 750 125V549.4791666666667L852.8645833333333 446.6145833333334A31.25 31.25 0 0 1 897.1354166666666 446.6145833333334A31.25 31.25 0 0 1 897.1354166666666 490.8854166666667L740.8854166666666 647.1354166666667A31.25 31.25 0 0 1 718.75 656.25zM125 468.75A31.25 31.25 0 0 1 93.75 437.5A31.25 31.25 0 0 1 125 406.25H343.75A31.25 31.25 0 0 1 375 437.5A31.25 31.25 0 0 1 343.75 468.75z" />
    <glyph glyph-name="battery-0"
      unicode="&#xE041;"
      horiz-adv-x="1000" d="M156.25 718.75C87.5846208333333 718.75 31.25 662.4153791666668 31.25 593.75V343.75C31.25 275.0846250000001 87.5846208333333 218.75 156.25 218.75H781.25C849.9153749999999 218.75 906.25 275.0846250000001 906.25 343.75V350.2604166666668C940.677875 358.3777083333335 968.75 385.1556666666667 968.75 421.875V515.625C968.75 552.3443333333333 940.677875 579.1222916666667 906.25 587.2395833333334V593.75C906.25 662.4153791666668 849.9153749999999 718.75 781.25 718.75zM156.25 656.25H781.25C816.1379166666666 656.25 843.75 628.6379083333334 843.75 593.75V562.5V375V343.75C843.75 308.8620833333335 816.1379166666666 281.25 781.25 281.25H156.25C121.3620916666667 281.25 93.75 308.8620833333335 93.75 343.75V593.75C93.75 628.6379083333334 121.3620916666667 656.25 156.25 656.25z" />
    <glyph glyph-name="battery-100"
      unicode="&#xE042;"
      horiz-adv-x="1000" d="M156.25 718.75C87.5846208333333 718.75 31.25 662.4153791666668 31.25 593.75V343.75C31.25 275.0846250000001 87.5846208333333 218.75 156.25 218.75H781.25C849.9153749999999 218.75 906.25 275.0846250000001 906.25 343.75V350.2604166666668C940.677875 358.3777083333335 968.75 385.1556666666667 968.75 421.875V515.625C968.75 552.3443333333333 940.677875 579.1222916666667 906.25 587.2395833333334V593.75C906.25 662.4153791666668 849.9153749999999 718.75 781.25 718.75zM156.25 656.25H781.25C816.1379166666666 656.25 843.75 628.6379083333334 843.75 593.75V562.5V375V343.75C843.75 308.8620833333335 816.1379166666666 281.25 781.25 281.25H156.25C121.3620916666667 281.25 93.75 308.8620833333335 93.75 343.75V593.75C93.75 628.6379083333334 121.3620916666667 656.25 156.25 656.25zM187.5 593.75A31.253125 31.253125 0 0 1 156.25 562.5V375A31.253125 31.253125 0 0 1 187.5 343.75H750A31.253125 31.253125 0 0 1 781.25 375V562.5A31.253125 31.253125 0 0 1 750 593.75zM218.75 531.25H718.75V406.25H218.75z" />
    <glyph glyph-name="battery-50"
      unicode="&#xE043;"
      horiz-adv-x="1000" d="M156.25 718.75C87.5846208333333 718.75 31.25 662.4153791666668 31.25 593.75V343.75C31.25 275.0846250000001 87.5846208333333 218.75 156.25 218.75H781.25C849.9153749999999 218.75 906.25 275.0846250000001 906.25 343.75V350.2604166666668C940.677875 358.3777083333335 968.75 385.1556666666667 968.75 421.875V515.625C968.75 552.3443333333333 940.677875 579.1222916666667 906.25 587.2395833333334V593.75C906.25 662.4153791666668 849.9153749999999 718.75 781.25 718.75zM156.25 656.25H781.25C816.1379166666666 656.25 843.75 628.6379083333334 843.75 593.75V562.5V375V343.75C843.75 308.8620833333335 816.1379166666666 281.25 781.25 281.25H156.25C121.3620916666667 281.25 93.75 308.8620833333335 93.75 343.75V593.75C93.75 628.6379083333334 121.3620916666667 656.25 156.25 656.25zM187.5 593.75A31.253125 31.253125 0 0 1 156.25 562.5V375A31.253125 31.253125 0 0 1 187.5 343.75H468.75A31.253125 31.253125 0 0 1 500 375V562.5A31.253125 31.253125 0 0 1 468.75 593.75zM218.75 531.25H437.5V406.25H218.75z" />
    <glyph glyph-name="beaker"
      unicode="&#xE044;"
      horiz-adv-x="1000" d="M406.25 901.93685A31.25 31.25 0 0 1 405.8429166666667 901.7739333333334C405.0310416666667 901.7006 404.21325 901.84935 403.4015 901.7739333333334C403.3744416666667 901.7714208333334 403.3473333333333 901.77645 403.32025 901.7739333333334C392.5533541666666 900.7864333333334 381.7791666666667 899.6582666666667 371.0123083333334 898.2746A31.25 31.25 0 0 1 343.9941416666667 863.28125A31.25 31.25 0 0 1 375 839.3554666666666V632.5683583333333C375.0001416666667 615.9802833333333 368.4189208333334 600.1085166666667 356.6894541666667 588.3789041666666L186.1979166666667 417.96875A31.25 31.25 0 0 1 186.1979166666667 417.8854166666667A31.25 31.25 0 0 1 186.1166666666667 417.8020833333333L94.4824208333333 326.171875C60.8093208333333 292.553375 51.0500416666667 245.5978333333334 62.6627583333333 205.4850416666667C74.2754791666667 165.3722083333333 108.4310708333333 130.8748333333334 155.7617208333333 122.8027500000001C267.661275 103.6731666666667 382.6929124999999 93.75 500 93.75C615.3547916666666 93.7098333333335 730.5239583333333 103.4177083333334 844.2382916666666 122.8027500000001C891.5539166666665 130.877 925.6457083333332 165.3740833333334 937.255875 205.4850416666667C948.8659999999998 245.5959583333335 939.1596249999998 292.5297083333334 905.5175833333332 326.171875L847.0865833333334 384.6028750000001L643.3105416666666 588.3789041666666C631.6225833333333 600.0391833333333 625 615.9638958333334 625 632.5683583333333V839.3554666666666A31.25 31.25 0 0 1 656.005875 863.28125A31.25 31.25 0 0 1 628.987625 898.2747375C618.2475833333333 899.6549875000001 607.5011666666667 900.7881958333334 596.7610833333333 901.7740708333334A31.25 31.25 0 0 1 596.67775 901.7740708333334C596.6509166666667 901.7765291666668 596.6235833333333 901.7716166666665 596.5944166666666 901.7740708333334C595.91775 901.8369875 595.2364999999999 901.7124041666668 594.5598333333332 901.7740708333334A31.25 31.25 0 0 1 593.7460833333332 901.9369875A31.25 31.25 0 0 1 593.3377499999999 901.7740708333334C531.3880416666666 907.3346375 469.0097916666666 907.3103958333334 407.0584708333333 901.7740708333334A31.25 31.25 0 0 1 406.25 901.93685zM437.5 839.5182291666667C479.1644166666666 842.1798958333334 520.8355833333334 842.1798958333334 562.5 839.5182291666667V632.5683583333333C562.5 599.422875 575.6424166666666 567.6124583333333 599.1210833333333 544.1894583333333L763.9159999999999 379.3945416666667L752.0345 376.4649583333334C672.0583333333333 356.7221666666667 587.6729166666667 366.0600416666668 513.9974166666667 402.9134166666667C445.8835000000001 436.9847916666667 370.1421875 444.9651250000001 295.0846333333334 438.3137916666667L400.8789083333334 544.1894583333333C424.3123749999999 567.6232083333334 437.5002916666667 599.4282291666667 437.5 632.5683583333333zM369.3033875 381.5104166666668C409.6174458333333 377.0260416666667 449.1525416666667 365.5194166666667 486.002625 347.0865833333334C572.9842083333333 303.5773333333333 672.6731666666667 292.4239583333333 767.0898333333333 315.7552083333334A31.253125 31.253125 0 0 1 767.1731666666666 315.8385416666667L815.4316249999999 327.8828333333332L861.3300833333333 281.984375C879.0212083333332 264.2932500000001 882.8475416666665 242.1351249999999 877.2805833333333 222.9023333333333C871.7136666666665 203.6695833333333 857.9681666666665 188.5435833333334 833.7422083333333 184.4095C723.50275 165.6152083333334 611.8277916666666 156.2110833333334 500 156.25C386.2239833333333 156.25 274.7747 165.8705000000001 166.3411458333333 184.4075416666667A31.253125 31.253125 0 0 1 166.2598958333333 184.4075416666667C142.0071541666667 188.5437500000001 128.2857 203.6799583333334 122.7213541666667 222.9003750000001C117.1570083333333 242.1208333333334 120.9700291666667 264.2279166666667 138.671875 281.9010416666668A31.253125 31.253125 0 0 1 138.671875 281.984375L224.3652333333333 367.67775L247.8841125 373.537125C287.8840708333333 383.4214583333333 328.989325 385.9967499999999 369.3033875 381.512375z" />
    <glyph glyph-name="bell-alert"
      unicode="&#xE045;"
      horiz-adv-x="1000" d="M500 906.25C345.0402458333333 906.25 218.75 779.9598666666667 218.75 625V593.75A31.253125 31.253125 0 0 1 218.75 593.66875C218.865 508.7200875 187.3866083333333 426.8156291666667 130.452475 363.7696708333334A31.253125 31.253125 0 0 1 142.8222666666667 313.5580875000001C208.3102208333333 289.3732541666667 278.0086875 274.5732125000001 348.9583333333333 264.0789208333333C341.4173083333333 175.9083375 406.954475 93.8315041666667 500 93.8315041666667C593.0455416666666 93.8315041666667 658.5827083333332 175.9083375 651.0416666666666 264.0789208333333C721.1194166666666 274.4099625000001 790.5943749999999 288.9299625 857.0963333333333 313.4767125A31.253125 31.253125 0 0 1 869.466125 363.7696708333334C812.5458749999999 426.8212083333334 781.1243333333333 508.7250416666667 781.25 593.6686208333333A31.253125 31.253125 0 0 1 781.25 593.75V625C781.25 779.9598666666667 654.95975 906.25 500 906.25zM218.8313791666666 906.16875A31.25 31.25 0 0 1 197.265625 895.8333333333334C146.0568958333333 838.7443666666667 112.0960083333333 768.3351250000001 99.3652333333333 692.7083333333334A31.25 31.25 0 0 1 125 656.6569A31.25 31.25 0 0 1 160.9700541666667 682.2916666666667C171.7367083333333 746.2506666666667 200.4255375 805.88545 243.733725 854.1666666666667A31.25 31.25 0 0 1 241.3736958333334 898.2747375A31.25 31.25 0 0 1 218.8313791666666 906.1686208333334zM758.6262916666667 898.2747375A31.25 31.25 0 0 1 756.2662916666666 854.1666666666667C799.5744583333333 805.88545 828.2632916666665 746.2506666666667 839.0299583333333 682.2916666666667A31.25 31.25 0 0 1 875 656.6569A31.25 31.25 0 0 1 900.6347499999999 692.7083333333334C887.9039999999999 768.3351250000001 853.9430833333333 838.7443666666667 802.734375 895.8333333333334A31.25 31.25 0 0 1 758.6262916666667 898.2747375zM500 843.75C621.1823333333333 843.75 718.75 746.1824166666667 718.75 625V593.8313791666667C718.625 509.804625 749.8534999999999 431.184375 797.7701666666667 363.1185000000001C738.1281666666666 343.8019583333334 677.7159583333333 326.6330833333334 615.397125 319.2545416666668C538.7586666666666 310.1640000000001 461.2413333333333 310.1640000000001 384.6028666666667 319.2545416666668C321.1928541666666 326.7834583333334 261.1600583333333 343.9697916666667 202.1484375 363.1185000000001C250.078725 431.18075 281.3639583333334 509.799625 281.25 593.8313791666667V625C281.25 746.1824166666667 378.8176583333334 843.75 500 843.75zM409.0983083333333 257.2428333333334C469.631625 251.9369166666668 530.3683749999999 251.9369166666668 590.9017083333332 257.2428333333334C595.2752916666666 204.0498333333334 556.7309999999999 156.3313750000001 500 156.3313750000001C443.269 156.3313750000001 404.7247208333333 204.0498333333334 409.0983083333333 257.2428333333334z" />
    </font>
</defs>
</svg>
