<svg width="350" height="150" viewBox="0 0 350 150" fill="none" xmlns="http://www.w3.org/2000/svg">
<path fill-rule="evenodd" clip-rule="evenodd" d="M82.5505 88.3266C78.7322 91.4315 67.3297 91.5362 67.3297 91.5362C51.0981 91.4946 34.5866 91.457 29.3094 91.5516C24.8113 91.5315 23.1238 87.2516 24.7748 84.3212C18.8958 96.6267 18.2839 98.9197 26.2243 107.916C31.4389 112.975 35.7923 119.22 43.3086 124.295C49.8851 127.394 55.0314 127.361 59.2338 125.829C68.7082 120.595 83.5415 112.412 86.6579 110.262C90.0828 107.9 91.6061 106.052 93.9822 102.414C95.7993 98.5909 95.3633 99.7444 96.3934 94.572C97.6051 73.0966 96.6626 73.1557 96.4559 58.54C96.3729 52.6427 94.1383 45.3067 86.4652 40.5162C92.3379 45.37 92.8702 51.9313 93.2617 55.5834C93.3714 60.6585 89.8781 71.3779 89.0333 74.0817C88.1892 76.7853 86.3695 85.2217 82.5505 88.3266Z" fill="url(#paint0_linear_23_40)"/>
<path d="M67.3349 91.5315C67.3349 91.5315 78.7367 91.4268 82.5557 88.3219C86.3747 85.217 88.1944 76.78 89.0385 74.077C89.7816 71.6975 92.5763 63.1108 93.1612 57.6258C93.219 56.797 93.2523 56.1039 93.2669 55.5787C93.2795 56.1876 93.241 56.8778 93.1612 57.6258C92.8927 61.499 92.1051 68.335 90.3771 74.8467C87.5065 85.1002 85.8177 89.3332 80.6774 91.1806C76.0702 92.836 68.5386 93.3836 55.5377 92.9092C42.6126 92.787 29.314 91.5469 29.314 91.5469C34.5911 91.4523 51.1033 91.4899 67.3349 91.5315Z" fill="url(#paint1_linear_23_40)"/>
<path fill-rule="evenodd" clip-rule="evenodd" d="M43.4195 39.0387C47.9922 40.8253 53.7825 50.7427 53.7825 50.7427C61.8631 64.9561 70.0866 79.4125 72.8069 83.9796C75.0381 87.9226 72.2107 91.5382 68.8716 91.559C82.3663 90.5471 84.6387 89.9358 88.3852 78.4952C90.1173 71.4057 93.2975 64.4768 93.8924 55.367C93.2623 48.0669 90.6609 43.5838 87.2454 40.6753C78.0196 35.0082 63.5831 26.1293 60.1809 24.4794C56.4423 22.6662 54.0962 22.2577 49.7867 22C45.5989 22.3222 46.8072 22.1267 41.855 23.8124C22.8285 33.4907 23.3507 34.2847 10.9173 41.7734C5.90063 44.795 0.725202 50.4165 0.452637 59.5209C1.67981 51.9594 7.04154 48.2132 9.97848 46.0448C14.2769 43.4115 25.2181 41.1062 27.9595 40.4927C30.7005 39.8792 38.8469 37.2521 43.4195 39.0387Z" fill="url(#paint2_linear_23_40)"/>
<path d="M53.7761 50.7408C53.7761 50.7408 47.9858 40.8233 43.4132 39.0368C38.8405 37.2502 30.6941 39.8773 27.9531 40.4908C25.5407 41.0308 16.7781 42.8807 11.7807 45.1116C11.0412 45.4756 10.4298 45.7927 9.97217 46.043C10.4879 45.727 11.0993 45.4157 11.7807 45.1116C15.2374 43.4099 21.4948 40.6805 27.9438 38.9357C38.1739 36.3186 42.6495 35.6788 46.8041 39.2499C50.528 42.4505 54.7631 48.7624 60.8571 60.3669C67.2143 71.7297 72.8005 83.9776 72.8005 83.9776C70.0802 79.4105 61.8567 64.9543 53.7761 50.7408Z" fill="url(#paint3_linear_23_40)"/>
<path fill-rule="evenodd" clip-rule="evenodd" d="M20.9684 98.0635C20.2146 93.1723 25.8259 83.1502 25.8259 83.1502C33.9777 68.9784 42.2657 54.5595 44.8225 49.8977C47.0889 45.9752 51.6038 46.6395 53.292 49.5482C45.6759 38.2549 44.0157 36.5737 32.3294 39.0186C25.3822 41.0484 17.8489 41.7323 9.73752 45.7669C3.79105 49.9682 1.24617 54.484 0.459316 58.925C0.211209 69.8254 -0.186642 86.8873 0.0992831 90.6874C0.413455 94.8633 1.2362 97.1187 3.16969 101.015C5.5399 104.516 4.76839 103.558 8.69032 107.045C26.5051 118.842 26.925 117.988 39.5653 125.115C44.665 127.991 52.075 129.706 60.0207 125.392C52.9211 128.099 47.0271 125.284 43.6986 123.801C39.2901 121.359 31.8423 112.945 29.9454 110.855C28.0492 108.765 21.7222 102.955 20.9684 98.0635Z" fill="url(#paint4_linear_23_40)"/>
<path d="M25.8278 83.1569C25.8278 83.1569 20.2165 93.1789 20.9703 98.0702C21.7242 102.962 28.0509 108.771 29.9478 110.862C31.6167 112.701 37.5851 119.438 41.9969 122.691C42.6795 123.156 43.2571 123.532 43.7004 123.807C43.1713 123.514 42.5984 123.136 41.9969 122.691C38.8093 120.52 33.3394 116.413 28.6179 111.647C21.2583 104.01 18.4719 100.417 19.4575 94.9988C20.3408 90.1425 23.6373 83.2831 30.544 72.1526C37.1119 60.9124 44.8243 49.9044 44.8243 49.9044C42.2674 54.5662 33.9795 68.985 25.8278 83.1569Z" fill="url(#paint5_linear_23_40)"/>
<path d="M139.192 50.064V58.656H129.4V72H117.88V36H141.496L140.056 45.216H129.4V50.064H139.192ZM170.126 60L176.366 72H163.694L158.99 61.296H156.494V72H144.974V36H163.118C171.374 36 175.502 40.208 175.502 48.624C175.502 54.384 173.71 58.176 170.126 60ZM159.134 45.216H156.494V52.416H159.134C160.542 52.416 161.55 52.272 162.158 51.984C162.798 51.696 163.118 51.04 163.118 50.016V47.616C163.118 46.592 162.798 45.936 162.158 45.648C161.55 45.36 160.542 45.216 159.134 45.216ZM190.299 66.288L189.003 72H176.859L186.171 36H203.979L213.291 72H201.147L199.803 66.288H190.299ZM195.387 47.04H194.763L192.411 57.12H197.691L195.387 47.04ZM227.281 56.352H227.041V72H215.521V36H227.041V50.688H227.281C227.313 50.112 227.377 49.6 227.473 49.152C227.569 48.672 227.697 48.256 227.857 47.904L233.473 36H245.953L237.313 53.664L246.241 72H233.761L227.857 59.088C227.697 58.736 227.569 58.336 227.473 57.888C227.377 57.44 227.313 56.928 227.281 56.352ZM275.325 36V45.216H266.973V72H255.453V45.216H247.101V36H275.325ZM276.746 54.048C276.746 50.752 277.018 47.92 277.562 45.552C278.138 43.152 279.082 41.184 280.394 39.648C281.738 38.112 283.498 36.976 285.674 36.24C287.85 35.504 290.538 35.136 293.738 35.136C296.97 35.136 299.658 35.504 301.802 36.24C303.978 36.976 305.722 38.112 307.034 39.648C308.378 41.184 309.322 43.152 309.866 45.552C310.442 47.92 310.73 50.752 310.73 54.048C310.73 57.184 310.474 59.936 309.962 62.304C309.45 64.64 308.538 66.592 307.226 68.16C305.946 69.728 304.202 70.912 301.994 71.712C299.818 72.48 297.066 72.864 293.738 72.864C290.41 72.864 287.642 72.48 285.434 71.712C283.258 70.912 281.514 69.728 280.202 68.16C278.922 66.592 278.026 64.64 277.514 62.304C277.002 59.936 276.746 57.184 276.746 54.048ZM289.13 48.048V63.024H293.93C295.53 63.024 296.666 62.848 297.338 62.496C298.042 62.112 298.394 61.264 298.394 59.952V44.976H293.546C292.01 44.976 290.89 45.168 290.186 45.552C289.482 45.904 289.13 46.736 289.13 48.048ZM346.723 72H335.875L327.091 59.232C326.931 59.008 326.803 58.672 326.707 58.224C326.611 57.776 326.547 57.184 326.515 56.448H326.275V72H314.755V36H325.603L334.387 48.768C334.547 48.992 334.675 49.328 334.771 49.776C334.867 50.224 334.931 50.816 334.963 51.552H335.203V36H346.723V72Z" fill="#DDA33C"/>
<path d="M149.848 115H139L130.216 102.232C130.056 102.008 129.928 101.672 129.832 101.224C129.736 100.776 129.672 100.184 129.64 99.448H129.4V115H117.88V79H128.728L137.512 91.768C137.672 91.992 137.8 92.328 137.896 92.776C137.992 93.224 138.056 93.816 138.088 94.552H138.328V79H149.848V115ZM174.046 104.392V102.856H171.118V94.024H184.99V113.272C180.446 115 175.726 115.864 170.83 115.864C167.47 115.864 164.686 115.464 162.478 114.664C160.302 113.864 158.574 112.68 157.294 111.112C156.014 109.512 155.118 107.544 154.606 105.208C154.126 102.84 153.886 100.088 153.886 96.952C153.886 93.624 154.19 90.776 154.798 88.408C155.406 86.008 156.414 84.056 157.822 82.552C159.23 81.016 161.102 79.896 163.438 79.192C165.774 78.488 168.67 78.136 172.126 78.136C172.894 78.136 173.79 78.184 174.814 78.28C175.87 78.344 176.926 78.456 177.982 78.616C179.038 78.744 180.03 78.904 180.958 79.096C181.918 79.256 182.686 79.432 183.262 79.624L181.534 88.456C179.966 88.2 178.478 88.008 177.07 87.88C175.662 87.72 174.35 87.64 173.134 87.64C170.606 87.64 168.83 87.832 167.806 88.216C166.782 88.6 166.27 89.368 166.27 90.52V106.84H170.062C171.47 106.84 172.478 106.696 173.086 106.408C173.726 106.088 174.046 105.416 174.046 104.392Z" fill="#BCBCBC"/>
<defs>
<linearGradient id="paint0_linear_23_40" x1="24.0007" y1="99.5042" x2="98.8504" y2="91.9963" gradientUnits="userSpaceOnUse">
<stop stop-color="#221904"/>
<stop offset="0.192308" stop-color="#221904"/>
<stop offset="0.447115" stop-color="#795E1E"/>
<stop offset="0.836538" stop-color="#EFBA5A"/>
<stop offset="0.966346" stop-color="#FFBB3F"/>
</linearGradient>
<linearGradient id="paint1_linear_23_40" x1="34.5931" y1="101.572" x2="99.4894" y2="67.3951" gradientUnits="userSpaceOnUse">
<stop offset="0.100962" stop-color="#322816"/>
<stop offset="0.307692" stop-color="#725B31"/>
<stop offset="0.625" stop-color="#F2C36D"/>
<stop offset="0.918269" stop-color="#41331C"/>
</linearGradient>
<linearGradient id="paint2_linear_23_40" x1="82.2826" y1="84.6446" x2="37.7431" y2="23.4417" gradientUnits="userSpaceOnUse">
<stop/>
<stop offset="0.274038" stop-color="#0B1B2C"/>
<stop offset="1" stop-color="#1B4774"/>
</linearGradient>
<linearGradient id="paint3_linear_23_40" x1="78.759" y1="74.3495" x2="16.356" y2="35.7281" gradientUnits="userSpaceOnUse">
<stop offset="0.192308" stop-color="#142435"/>
<stop offset="0.673077" stop-color="#5C728F"/>
<stop offset="0.918269" stop-color="#142435"/>
</linearGradient>
<linearGradient id="paint4_linear_23_40" x1="40.6553" y1="41.2798" x2="9.3056" y2="110.316" gradientUnits="userSpaceOnUse">
<stop offset="0.1875" stop-color="#040D16"/>
<stop offset="0.5" stop-color="#0D2137"/>
<stop offset="0.711538" stop-color="#1C4673"/>
<stop offset="0.894231" stop-color="#040D16"/>
</linearGradient>
<linearGradient id="paint5_linear_23_40" x1="33.8266" y1="49.5166" x2="31.223" y2="123.367" gradientUnits="userSpaceOnUse">
<stop stop-color="#322816"/>
<stop offset="0.509615" stop-color="#D7A34A"/>
<stop offset="0.918269" stop-color="#41331C"/>
</linearGradient>
</defs>
</svg>
