<svg width="130" height="140" viewBox="0 0 130 140" fill="none" xmlns="http://www.w3.org/2000/svg">
<path fill-rule="evenodd" clip-rule="evenodd" d="M58.0442 22.4113C64.157 24.7612 71.8996 37.8057 71.8996 37.8057C82.7023 56.5011 93.697 75.5152 97.3331 81.5226C100.316 86.7087 96.5368 91.4645 92.0725 91.4927C110.114 90.1609 113.152 89.3566 118.161 74.3089C120.476 64.9843 124.729 55.8705 125.524 43.8881C124.681 34.2862 121.203 28.3895 116.637 24.5639C104.303 17.1098 85.0021 5.43135 80.4534 3.26122C75.455 0.87629 72.3186 0.338987 66.5576 0C60.9587 0.423789 62.5735 0.166712 55.9521 2.38381C30.5156 15.114 31.2132 16.1583 14.5907 26.0083C7.88371 29.9826 0.964521 37.3766 0.600098 49.3518C2.24079 39.4061 9.40908 34.4787 13.3356 31.6266C19.0823 28.1628 33.7102 25.1307 37.3746 24.3238C41.0397 23.5168 51.9314 20.0614 58.0442 22.4113Z" fill="url(#paint0_linear_11_330)"/>
<path d="M71.8908 37.8032C71.8908 37.8032 64.1482 24.7587 58.0353 22.4088C51.9218 20.0589 41.0309 23.5144 37.3658 24.3214C34.1405 25.0315 22.4258 27.4648 15.7446 30.399C14.7558 30.8779 13.9385 31.295 13.3267 31.6242C14.0162 31.2085 14.8336 30.7991 15.7446 30.399C20.366 28.1608 28.7313 24.5707 37.3538 22.2759C51.0307 18.8336 58.1892 15.6223 63.7441 20.3196C68.7223 24.5293 74.6439 38.4428 82.7906 53.7063C91.3802 71.5126 97.3242 81.5197 97.3242 81.5197C93.6882 75.5131 82.6927 56.4982 71.8908 37.8032Z" fill="url(#paint1_linear_11_330)"/>
<path fill-rule="evenodd" clip-rule="evenodd" d="M28.0333 100.624C27.0257 94.1911 34.5277 81.0085 34.5277 81.0085C45.4261 62.3683 56.5067 43.4028 59.9254 37.271C62.9556 32.1117 68.9915 32.9855 71.248 36.8114C61.0667 21.9571 58.8468 19.7457 43.2219 22.9615C33.9347 25.6314 23.8632 26.5309 13.0185 31.8378C5.06845 37.3638 1.66607 43.3035 0.614104 49.1448C0.282321 63.4819 -0.249488 85.9238 0.132712 90.9221C0.552781 96.4146 1.6527 99.3816 4.23765 104.507C7.40654 109.111 6.37504 107.851 11.6184 112.437C35.436 127.955 35.9969 126.831 52.8968 136.206C59.7147 139.989 69.6212 142.243 80.2439 136.569C70.752 140.131 62.872 136.428 58.4226 134.477C52.5293 131.265 42.5714 120.198 40.0356 117.449C37.4998 114.699 29.0416 107.058 28.0333 100.624Z" fill="url(#paint2_linear_11_330)"/>
<path d="M34.5301 81.0174C34.5301 81.0174 27.0281 94.1992 28.0357 100.633C29.044 107.067 37.5021 114.708 40.0379 117.457C42.2698 119.877 50.2484 128.737 56.1476 133.018C57.0596 133.629 57.8319 134.124 58.4249 134.485C57.7176 134.1 56.952 133.602 56.1476 133.018C51.8856 130.162 44.5725 124.76 38.261 118.491C28.4211 108.446 22.0423 103.894 23.3599 96.767C24.5408 90.379 33.7108 78.3294 42.945 63.6889C54.175 47.3969 59.9277 37.2799 59.9277 37.2799C56.5091 43.4115 45.4285 62.3772 34.5301 81.0174Z" fill="url(#paint3_linear_11_330)"/>
<path fill-rule="evenodd" clip-rule="evenodd" d="M110.682 87.6821C105.577 91.7657 90.3327 91.903 90.3327 91.903C68.6323 91.8488 46.5563 91.7991 39.5009 91.9245C33.4881 91.897 31.2317 86.268 33.4389 82.4137C25.579 98.5996 24.7611 101.615 35.3771 113.448C42.3481 120.102 48.1689 128.316 58.2173 134.992C67.0108 139.067 73.8907 139.024 79.509 137.008C92.1753 130.126 112.007 119.362 116.173 116.534C120.752 113.427 122.789 110.997 125.965 106.211C128.395 101.182 127.812 102.7 129.189 95.896C130.808 67.6494 129.549 67.7273 129.273 48.5031C129.161 40.7464 126.175 31.0972 115.916 24.7962C123.767 31.1803 124.478 39.8105 125.002 44.6143C125.148 51.2896 120.478 65.3887 119.349 68.9448C118.221 72.5008 115.788 83.5978 110.682 87.6821Z" fill="url(#paint4_linear_11_330)"/>
<path d="M90.3391 91.897C90.3391 91.897 105.583 91.759 110.688 87.6754C115.794 83.5919 118.227 72.4949 119.356 68.9388C120.349 65.8093 124.085 54.515 124.867 47.3005C124.944 46.2105 124.99 45.2988 125.008 44.6079C125.026 45.4089 124.974 46.3168 124.867 47.3005C124.508 52.3953 123.455 61.3867 121.145 69.9515C117.308 83.4375 116.528 91.2011 109.655 93.6309C103.496 95.8092 88.4046 93.9455 71.0237 93.3222C51.2049 91.808 39.5073 91.9178 39.5073 91.9178C46.5628 91.7931 68.638 91.8421 90.3391 91.897Z" fill="url(#paint5_linear_11_330)"/>
<defs>
<linearGradient id="paint0_linear_11_330" x1="110.002" y1="82.3974" x2="51.7191" y2="0.991846" gradientUnits="userSpaceOnUse">
<stop stop-color="#041428"/>
<stop offset="0.201923" stop-color="#0E1E33"/>
<stop offset="0.475962" stop-color="#2A4263"/>
</linearGradient>
<linearGradient id="paint1_linear_11_330" x1="105.121" y1="69.1265" x2="22.4504" y2="17.1208" gradientUnits="userSpaceOnUse">
<stop stop-color="#987328"/>
<stop offset="0.509615" stop-color="#ECAF44"/>
<stop offset="0.918269" stop-color="#A97B21"/>
</linearGradient>
<linearGradient id="paint2_linear_11_330" x1="54.3541" y1="25.9358" x2="13.5624" y2="117.241" gradientUnits="userSpaceOnUse">
<stop stop-color="#041428"/>
<stop offset="0.201923" stop-color="#0E1E33"/>
<stop offset="0.475962" stop-color="#2A4263"/>
</linearGradient>
<linearGradient id="paint3_linear_11_330" x1="45.2246" y1="36.7697" x2="41.8551" y2="133.91" gradientUnits="userSpaceOnUse">
<stop stop-color="#987328"/>
<stop offset="0.509615" stop-color="#ECAF44"/>
<stop offset="0.918269" stop-color="#A97B21"/>
</linearGradient>
<linearGradient id="paint4_linear_11_330" x1="32.4044" y1="102.384" x2="132.441" y2="92.1846" gradientUnits="userSpaceOnUse">
<stop stop-color="#041428"/>
<stop offset="0.201923" stop-color="#0E1E33"/>
<stop offset="0.475962" stop-color="#2A4263"/>
</linearGradient>
<linearGradient id="paint5_linear_11_330" x1="46.4141" y1="104.821" x2="132.557" y2="58.7099" gradientUnits="userSpaceOnUse">
<stop stop-color="#987328"/>
<stop offset="0.509615" stop-color="#ECAF44"/>
<stop offset="0.918269" stop-color="#A97B21"/>
</linearGradient>
</defs>
</svg>
